<mxfile host="app.diagrams.net" modified="2022-05-15T11:32:55.197Z" agent="5.0 (Windows NT 10.0; Win64; x64) AppleWebKit/537.36 (KHTML, like Gecko) Chrome/101.0.4951.54 Safari/537.36 Edg/101.0.1210.39" etag="Q8gxMHdx3Eoah_QpCPgj" version="17.4.6" type="github">
  <diagram id="po_bsAwMXMUbILKIjwSt" name="Page-1">
    <mxGraphModel dx="2741" dy="4122" grid="1" gridSize="10" guides="1" tooltips="1" connect="1" arrows="1" fold="1" page="1" pageScale="1" pageWidth="827" pageHeight="1169" math="0" shadow="0">
      <root>
        <mxCell id="0" />
        <mxCell id="1" parent="0" />
        <mxCell id="pPLAOlyI_o9XZUJ4gf85-77" value="" style="rounded=0;whiteSpace=wrap;html=1;fontSize=20;" parent="1" vertex="1">
          <mxGeometry x="1880" y="-1370" width="830" height="980" as="geometry" />
        </mxCell>
        <mxCell id="pPLAOlyI_o9XZUJ4gf85-59" value="" style="rounded=0;whiteSpace=wrap;html=1;fontSize=20;" parent="1" vertex="1">
          <mxGeometry x="-220" y="-3050" width="1050" height="510" as="geometry" />
        </mxCell>
        <mxCell id="pPLAOlyI_o9XZUJ4gf85-57" value="" style="rounded=0;whiteSpace=wrap;html=1;fontSize=20;" parent="1" vertex="1">
          <mxGeometry x="-860" y="-1860" width="950" height="1150" as="geometry" />
        </mxCell>
        <mxCell id="pPLAOlyI_o9XZUJ4gf85-48" value="" style="rounded=0;whiteSpace=wrap;html=1;" parent="1" vertex="1">
          <mxGeometry x="720" y="-2400" width="1030" height="1330" as="geometry" />
        </mxCell>
        <mxCell id="pPLAOlyI_o9XZUJ4gf85-46" value="" style="rounded=0;whiteSpace=wrap;html=1;" parent="1" vertex="1">
          <mxGeometry x="999" y="-420" width="691" height="490" as="geometry" />
        </mxCell>
        <mxCell id="F8ZkxFvzdjKbud3mfMzZ-83" style="edgeStyle=orthogonalEdgeStyle;rounded=0;orthogonalLoop=1;jettySize=auto;html=1;exitX=0.5;exitY=0;exitDx=0;exitDy=0;entryX=0.5;entryY=1;entryDx=0;entryDy=0;fontSize=20;" parent="1" source="pPLAOlyI_o9XZUJ4gf85-39" target="wMbTXYFd00fgI91BMli0-22" edge="1">
          <mxGeometry relative="1" as="geometry" />
        </mxCell>
        <mxCell id="pPLAOlyI_o9XZUJ4gf85-39" value="" style="rounded=0;whiteSpace=wrap;html=1;" parent="1" vertex="1">
          <mxGeometry x="270" y="-570" width="620" height="700" as="geometry" />
        </mxCell>
        <mxCell id="pPLAOlyI_o9XZUJ4gf85-65" style="edgeStyle=orthogonalEdgeStyle;rounded=0;orthogonalLoop=1;jettySize=auto;html=1;fontSize=20;endArrow=none;endFill=0;" parent="1" source="wMbTXYFd00fgI91BMli0-1" edge="1">
          <mxGeometry relative="1" as="geometry">
            <mxPoint x="1260.5" y="-840" as="targetPoint" />
            <Array as="points">
              <mxPoint x="1244" y="-840" />
            </Array>
          </mxGeometry>
        </mxCell>
        <mxCell id="wMbTXYFd00fgI91BMli0-1" value="로그인&lt;br&gt;login.jsp&lt;br&gt;" style="rounded=0;whiteSpace=wrap;html=1;" parent="1" vertex="1">
          <mxGeometry x="1200" y="-345" width="94" height="70" as="geometry" />
        </mxCell>
        <mxCell id="wMbTXYFd00fgI91BMli0-29" style="edgeStyle=orthogonalEdgeStyle;rounded=0;orthogonalLoop=1;jettySize=auto;html=1;endArrow=none;endFill=0;" parent="1" source="wMbTXYFd00fgI91BMli0-22" target="wMbTXYFd00fgI91BMli0-25" edge="1">
          <mxGeometry relative="1" as="geometry">
            <mxPoint x="-250" y="-925" as="sourcePoint" />
          </mxGeometry>
        </mxCell>
        <mxCell id="wMbTXYFd00fgI91BMli0-30" style="edgeStyle=orthogonalEdgeStyle;rounded=0;orthogonalLoop=1;jettySize=auto;html=1;entryX=0.5;entryY=1;entryDx=0;entryDy=0;endArrow=none;endFill=0;" parent="1" source="wMbTXYFd00fgI91BMli0-22" target="wMbTXYFd00fgI91BMli0-24" edge="1">
          <mxGeometry relative="1" as="geometry">
            <Array as="points">
              <mxPoint x="244" y="-1190" />
              <mxPoint x="244" y="-1190" />
            </Array>
          </mxGeometry>
        </mxCell>
        <mxCell id="uuZ5_4V9N_6O_D1vq4jB-8" style="edgeStyle=orthogonalEdgeStyle;rounded=0;orthogonalLoop=1;jettySize=auto;html=1;entryX=0;entryY=0.5;entryDx=0;entryDy=0;endArrow=none;endFill=0;" parent="1" target="wMbTXYFd00fgI91BMli0-77" edge="1">
          <mxGeometry relative="1" as="geometry">
            <Array as="points">
              <mxPoint x="810" y="-1680" />
            </Array>
            <mxPoint x="810" y="-1120" as="sourcePoint" />
          </mxGeometry>
        </mxCell>
        <mxCell id="pPLAOlyI_o9XZUJ4gf85-38" style="edgeStyle=orthogonalEdgeStyle;rounded=0;orthogonalLoop=1;jettySize=auto;html=1;endArrow=none;endFill=0;" parent="1" source="wMbTXYFd00fgI91BMli0-22" target="wMbTXYFd00fgI91BMli0-23" edge="1">
          <mxGeometry relative="1" as="geometry">
            <Array as="points">
              <mxPoint x="395" y="-1120" />
            </Array>
          </mxGeometry>
        </mxCell>
        <mxCell id="wMbTXYFd00fgI91BMli0-22" value="메인 페이지&lt;br style=&quot;font-size: 28px;&quot;&gt;index.jsp" style="rounded=0;whiteSpace=wrap;html=1;strokeWidth=1;fontSize=28;" parent="1" vertex="1">
          <mxGeometry x="190" y="-1040" width="410" height="230" as="geometry" />
        </mxCell>
        <mxCell id="wMbTXYFd00fgI91BMli0-23" value="&lt;font style=&quot;font-size: 20px&quot;&gt;product&lt;/font&gt;" style="rounded=0;whiteSpace=wrap;html=1;fontSize=17;" parent="1" vertex="1">
          <mxGeometry x="1195" y="-1150" width="160" height="60" as="geometry" />
        </mxCell>
        <mxCell id="wMbTXYFd00fgI91BMli0-24" value="칼로리사전&lt;br&gt;dict/main.jsp" style="rounded=0;whiteSpace=wrap;html=1;" parent="1" vertex="1">
          <mxGeometry x="184" y="-2680" width="120" height="60" as="geometry" />
        </mxCell>
        <mxCell id="wMbTXYFd00fgI91BMli0-49" style="edgeStyle=orthogonalEdgeStyle;rounded=0;orthogonalLoop=1;jettySize=auto;html=1;exitX=0;exitY=0.5;exitDx=0;exitDy=0;endArrow=none;endFill=0;" parent="1" source="wMbTXYFd00fgI91BMli0-25" target="wMbTXYFd00fgI91BMli0-48" edge="1">
          <mxGeometry relative="1" as="geometry" />
        </mxCell>
        <mxCell id="wMbTXYFd00fgI91BMli0-50" style="edgeStyle=orthogonalEdgeStyle;rounded=0;orthogonalLoop=1;jettySize=auto;html=1;exitX=1;exitY=0.25;exitDx=0;exitDy=0;entryX=0.57;entryY=0.967;entryDx=0;entryDy=0;entryPerimeter=0;endArrow=none;endFill=0;" parent="1" source="wMbTXYFd00fgI91BMli0-25" target="wMbTXYFd00fgI91BMli0-47" edge="1">
          <mxGeometry relative="1" as="geometry">
            <Array as="points">
              <mxPoint x="-470" y="-925" />
              <mxPoint x="-353" y="-925" />
            </Array>
          </mxGeometry>
        </mxCell>
        <mxCell id="wMbTXYFd00fgI91BMli0-25" value="고객센터" style="rounded=0;whiteSpace=wrap;html=1;" parent="1" vertex="1">
          <mxGeometry x="-540" y="-952.5" width="70" height="55" as="geometry" />
        </mxCell>
        <mxCell id="pPLAOlyI_o9XZUJ4gf85-27" style="edgeStyle=orthogonalEdgeStyle;rounded=0;orthogonalLoop=1;jettySize=auto;html=1;endArrow=none;endFill=0;" parent="1" source="wMbTXYFd00fgI91BMli0-32" target="wMbTXYFd00fgI91BMli0-23" edge="1">
          <mxGeometry relative="1" as="geometry">
            <Array as="points">
              <mxPoint x="1090" y="-1170" />
              <mxPoint x="1280" y="-1170" />
            </Array>
          </mxGeometry>
        </mxCell>
        <mxCell id="DBWStHCffXU6mWPYk1ZV-15" style="edgeStyle=orthogonalEdgeStyle;rounded=0;orthogonalLoop=1;jettySize=auto;html=1;entryX=0.5;entryY=1;entryDx=0;entryDy=0;endArrow=none;endFill=0;" parent="1" source="wMbTXYFd00fgI91BMli0-32" target="pPLAOlyI_o9XZUJ4gf85-89" edge="1">
          <mxGeometry relative="1" as="geometry">
            <Array as="points">
              <mxPoint x="1090" y="-1270" />
              <mxPoint x="1264" y="-1270" />
            </Array>
          </mxGeometry>
        </mxCell>
        <mxCell id="wMbTXYFd00fgI91BMli0-32" value="식단도시락&lt;br&gt;" style="rounded=0;whiteSpace=wrap;html=1;" parent="1" vertex="1">
          <mxGeometry x="1050" y="-1230" width="80" height="30" as="geometry" />
        </mxCell>
        <mxCell id="pPLAOlyI_o9XZUJ4gf85-36" style="edgeStyle=orthogonalEdgeStyle;rounded=0;orthogonalLoop=1;jettySize=auto;html=1;endArrow=none;endFill=0;startArrow=none;" parent="1" source="pPLAOlyI_o9XZUJ4gf85-89" target="wMbTXYFd00fgI91BMli0-63" edge="1">
          <mxGeometry relative="1" as="geometry">
            <Array as="points">
              <mxPoint x="1264" y="-1270" />
            </Array>
          </mxGeometry>
        </mxCell>
        <mxCell id="DBWStHCffXU6mWPYk1ZV-11" style="edgeStyle=orthogonalEdgeStyle;rounded=0;orthogonalLoop=1;jettySize=auto;html=1;endArrow=none;endFill=0;" parent="1" source="wMbTXYFd00fgI91BMli0-33" target="wMbTXYFd00fgI91BMli0-23" edge="1">
          <mxGeometry relative="1" as="geometry">
            <Array as="points">
              <mxPoint x="1445" y="-1170" />
              <mxPoint x="1280" y="-1170" />
            </Array>
          </mxGeometry>
        </mxCell>
        <mxCell id="wMbTXYFd00fgI91BMli0-33" value="도시락" style="rounded=0;whiteSpace=wrap;html=1;" parent="1" vertex="1">
          <mxGeometry x="1420" y="-1230" width="50" height="30" as="geometry" />
        </mxCell>
        <mxCell id="DBWStHCffXU6mWPYk1ZV-7" style="edgeStyle=orthogonalEdgeStyle;rounded=0;orthogonalLoop=1;jettySize=auto;html=1;endArrow=none;endFill=0;" parent="1" source="wMbTXYFd00fgI91BMli0-34" edge="1">
          <mxGeometry relative="1" as="geometry">
            <mxPoint x="1355" y="-1270" as="targetPoint" />
          </mxGeometry>
        </mxCell>
        <mxCell id="DBWStHCffXU6mWPYk1ZV-13" style="edgeStyle=orthogonalEdgeStyle;rounded=0;orthogonalLoop=1;jettySize=auto;html=1;endArrow=none;endFill=0;" parent="1" source="wMbTXYFd00fgI91BMli0-34" edge="1">
          <mxGeometry relative="1" as="geometry">
            <mxPoint x="1355" y="-1170" as="targetPoint" />
          </mxGeometry>
        </mxCell>
        <mxCell id="wMbTXYFd00fgI91BMli0-34" value="소고기" style="rounded=0;whiteSpace=wrap;html=1;" parent="1" vertex="1">
          <mxGeometry x="1330" y="-1230" width="50" height="30" as="geometry" />
        </mxCell>
        <mxCell id="DBWStHCffXU6mWPYk1ZV-8" style="edgeStyle=orthogonalEdgeStyle;rounded=0;orthogonalLoop=1;jettySize=auto;html=1;endArrow=none;endFill=0;" parent="1" source="wMbTXYFd00fgI91BMli0-35" edge="1">
          <mxGeometry relative="1" as="geometry">
            <mxPoint x="1185" y="-1170" as="targetPoint" />
          </mxGeometry>
        </mxCell>
        <mxCell id="DBWStHCffXU6mWPYk1ZV-9" style="edgeStyle=orthogonalEdgeStyle;rounded=0;orthogonalLoop=1;jettySize=auto;html=1;endArrow=none;endFill=0;" parent="1" source="wMbTXYFd00fgI91BMli0-35" edge="1">
          <mxGeometry relative="1" as="geometry">
            <mxPoint x="1185" y="-1270" as="targetPoint" />
          </mxGeometry>
        </mxCell>
        <mxCell id="wMbTXYFd00fgI91BMli0-35" value="닭가슴살" style="rounded=0;whiteSpace=wrap;html=1;" parent="1" vertex="1">
          <mxGeometry x="1150" y="-1230" width="70" height="30" as="geometry" />
        </mxCell>
        <mxCell id="DBWStHCffXU6mWPYk1ZV-14" style="edgeStyle=orthogonalEdgeStyle;rounded=0;orthogonalLoop=1;jettySize=auto;html=1;endArrow=none;endFill=0;" parent="1" source="wMbTXYFd00fgI91BMli0-36" edge="1">
          <mxGeometry relative="1" as="geometry">
            <mxPoint x="1275" y="-1170" as="targetPoint" />
          </mxGeometry>
        </mxCell>
        <mxCell id="DBWStHCffXU6mWPYk1ZV-17" style="edgeStyle=orthogonalEdgeStyle;rounded=0;orthogonalLoop=1;jettySize=auto;html=1;endArrow=none;endFill=0;" parent="1" source="wMbTXYFd00fgI91BMli0-36" edge="1">
          <mxGeometry relative="1" as="geometry">
            <mxPoint x="1275" y="-1270" as="targetPoint" />
          </mxGeometry>
        </mxCell>
        <mxCell id="wMbTXYFd00fgI91BMli0-36" value="샐러드" style="rounded=0;whiteSpace=wrap;html=1;" parent="1" vertex="1">
          <mxGeometry x="1250" y="-1230" width="50" height="30" as="geometry" />
        </mxCell>
        <mxCell id="pPLAOlyI_o9XZUJ4gf85-97" value="" style="edgeStyle=orthogonalEdgeStyle;rounded=0;orthogonalLoop=1;jettySize=auto;html=1;fontSize=15;endArrow=none;endFill=0;" parent="1" source="wMbTXYFd00fgI91BMli0-48" edge="1">
          <mxGeometry relative="1" as="geometry">
            <mxPoint x="-740" y="-1150" as="targetPoint" />
          </mxGeometry>
        </mxCell>
        <mxCell id="wMbTXYFd00fgI91BMli0-48" value="Q_A" style="rounded=0;whiteSpace=wrap;html=1;" parent="1" vertex="1">
          <mxGeometry x="-790" y="-1070" width="100" height="30" as="geometry" />
        </mxCell>
        <mxCell id="wMbTXYFd00fgI91BMli0-55" value="칼로리 처방&lt;br&gt;dict/detail.jsp" style="rounded=0;whiteSpace=wrap;html=1;" parent="1" vertex="1">
          <mxGeometry x="480" y="-3040" width="120" height="60" as="geometry" />
        </mxCell>
        <mxCell id="wMbTXYFd00fgI91BMli0-57" value="회원가입&lt;br&gt;join.jsp" style="rounded=0;whiteSpace=wrap;html=1;" parent="1" vertex="1">
          <mxGeometry x="1550" y="-410" width="120" height="60" as="geometry" />
        </mxCell>
        <mxCell id="wMbTXYFd00fgI91BMli0-63" value="&lt;font style=&quot;font-size: 20px&quot;&gt;상세페이지&lt;br&gt;&lt;/font&gt;" style="rounded=0;whiteSpace=wrap;html=1;" parent="1" vertex="1">
          <mxGeometry x="1187.75" y="-1540" width="152.5" height="70" as="geometry" />
        </mxCell>
        <mxCell id="pPLAOlyI_o9XZUJ4gf85-22" style="edgeStyle=orthogonalEdgeStyle;rounded=0;orthogonalLoop=1;jettySize=auto;html=1;endArrow=none;endFill=0;" parent="1" source="wMbTXYFd00fgI91BMli0-72" target="wMbTXYFd00fgI91BMli0-63" edge="1">
          <mxGeometry relative="1" as="geometry">
            <Array as="points">
              <mxPoint x="1260" y="-1513.5" />
              <mxPoint x="1260" y="-1513.5" />
            </Array>
          </mxGeometry>
        </mxCell>
        <mxCell id="o1LY4lYA1ahA4SfnEf8r-6" style="edgeStyle=orthogonalEdgeStyle;rounded=0;orthogonalLoop=1;jettySize=auto;html=1;fontSize=20;endArrow=none;endFill=0;startArrow=none;" parent="1" source="o1LY4lYA1ahA4SfnEf8r-7" target="uuZ5_4V9N_6O_D1vq4jB-11" edge="1">
          <mxGeometry relative="1" as="geometry">
            <Array as="points" />
          </mxGeometry>
        </mxCell>
        <mxCell id="wMbTXYFd00fgI91BMli0-72" value="&lt;font style=&quot;font-size: 20px&quot;&gt;구매페이지&lt;/font&gt;" style="rounded=0;whiteSpace=wrap;html=1;" parent="1" vertex="1">
          <mxGeometry x="1210" y="-1710" width="120" height="60" as="geometry" />
        </mxCell>
        <mxCell id="DBWStHCffXU6mWPYk1ZV-4" style="edgeStyle=orthogonalEdgeStyle;rounded=0;orthogonalLoop=1;jettySize=auto;html=1;endArrow=none;endFill=0;startArrow=none;" parent="1" source="o1LY4lYA1ahA4SfnEf8r-4" target="wMbTXYFd00fgI91BMli0-72" edge="1">
          <mxGeometry relative="1" as="geometry" />
        </mxCell>
        <mxCell id="DBWStHCffXU6mWPYk1ZV-6" style="edgeStyle=orthogonalEdgeStyle;rounded=0;orthogonalLoop=1;jettySize=auto;html=1;entryX=0;entryY=0.75;entryDx=0;entryDy=0;endArrow=none;endFill=0;" parent="1" source="wMbTXYFd00fgI91BMli0-77" target="wMbTXYFd00fgI91BMli0-63" edge="1">
          <mxGeometry relative="1" as="geometry">
            <Array as="points">
              <mxPoint x="930" y="-1500" />
            </Array>
          </mxGeometry>
        </mxCell>
        <mxCell id="wMbTXYFd00fgI91BMli0-77" value="&lt;font style=&quot;font-size: 20px&quot;&gt;장바구니&lt;/font&gt;" style="rounded=0;whiteSpace=wrap;html=1;" parent="1" vertex="1">
          <mxGeometry x="870" y="-1710" width="120" height="60" as="geometry" />
        </mxCell>
        <mxCell id="uuZ5_4V9N_6O_D1vq4jB-7" style="edgeStyle=orthogonalEdgeStyle;rounded=0;orthogonalLoop=1;jettySize=auto;html=1;endArrow=none;endFill=0;entryX=1.003;entryY=0.803;entryDx=0;entryDy=0;entryPerimeter=0;" parent="1" source="uuZ5_4V9N_6O_D1vq4jB-2" target="wMbTXYFd00fgI91BMli0-22" edge="1">
          <mxGeometry relative="1" as="geometry">
            <mxPoint x="680" y="-570" as="targetPoint" />
            <Array as="points">
              <mxPoint x="1121" y="-840" />
              <mxPoint x="601" y="-840" />
            </Array>
          </mxGeometry>
        </mxCell>
        <mxCell id="uuZ5_4V9N_6O_D1vq4jB-2" value="로그아웃&lt;br&gt;logout.ez" style="rounded=0;whiteSpace=wrap;html=1;fillColor=#f8cecc;strokeColor=#b85450;" parent="1" vertex="1">
          <mxGeometry x="1060" y="-650" width="130" height="80" as="geometry" />
        </mxCell>
        <mxCell id="o1LY4lYA1ahA4SfnEf8r-15" style="edgeStyle=orthogonalEdgeStyle;rounded=0;orthogonalLoop=1;jettySize=auto;html=1;fontSize=16;endArrow=none;endFill=0;" parent="1" source="uuZ5_4V9N_6O_D1vq4jB-11" target="o1LY4lYA1ahA4SfnEf8r-14" edge="1">
          <mxGeometry relative="1" as="geometry">
            <Array as="points">
              <mxPoint x="960" y="-2060" />
            </Array>
          </mxGeometry>
        </mxCell>
        <mxCell id="uuZ5_4V9N_6O_D1vq4jB-11" value="&lt;font style=&quot;font-size: 20px&quot;&gt;주문/배송 조회&lt;/font&gt;" style="rounded=0;whiteSpace=wrap;html=1;" parent="1" vertex="1">
          <mxGeometry x="859" y="-1995" width="151" height="90" as="geometry" />
        </mxCell>
        <mxCell id="pPLAOlyI_o9XZUJ4gf85-18" style="edgeStyle=orthogonalEdgeStyle;rounded=0;orthogonalLoop=1;jettySize=auto;html=1;endArrow=none;endFill=0;" parent="1" source="uuZ5_4V9N_6O_D1vq4jB-38" edge="1">
          <mxGeometry relative="1" as="geometry">
            <mxPoint x="-350" y="-1170" as="targetPoint" />
            <Array as="points">
              <mxPoint x="-520" y="-1170" />
            </Array>
          </mxGeometry>
        </mxCell>
        <mxCell id="uuZ5_4V9N_6O_D1vq4jB-38" value="상품" style="whiteSpace=wrap;html=1;rounded=0;" parent="1" vertex="1">
          <mxGeometry x="-580" y="-1350" width="120" height="60" as="geometry" />
        </mxCell>
        <mxCell id="pPLAOlyI_o9XZUJ4gf85-19" style="edgeStyle=orthogonalEdgeStyle;rounded=0;orthogonalLoop=1;jettySize=auto;html=1;entryX=0.75;entryY=0;entryDx=0;entryDy=0;endArrow=none;endFill=0;" parent="1" source="uuZ5_4V9N_6O_D1vq4jB-40" target="wMbTXYFd00fgI91BMli0-47" edge="1">
          <mxGeometry relative="1" as="geometry">
            <Array as="points">
              <mxPoint x="-350" y="-1070" />
            </Array>
          </mxGeometry>
        </mxCell>
        <mxCell id="uuZ5_4V9N_6O_D1vq4jB-40" value="배송" style="whiteSpace=wrap;html=1;rounded=0;" parent="1" vertex="1">
          <mxGeometry x="-410" y="-1350" width="120" height="60" as="geometry" />
        </mxCell>
        <mxCell id="pPLAOlyI_o9XZUJ4gf85-2" style="edgeStyle=orthogonalEdgeStyle;rounded=0;orthogonalLoop=1;jettySize=auto;html=1;shape=link;strokeColor=none;startArrow=none;" parent="1" source="wMbTXYFd00fgI91BMli0-47" edge="1">
          <mxGeometry relative="1" as="geometry">
            <mxPoint x="-350" y="-1050" as="targetPoint" />
            <Array as="points">
              <mxPoint x="-210" y="-1050" />
            </Array>
          </mxGeometry>
        </mxCell>
        <mxCell id="pPLAOlyI_o9XZUJ4gf85-20" style="edgeStyle=orthogonalEdgeStyle;rounded=0;orthogonalLoop=1;jettySize=auto;html=1;endArrow=none;endFill=0;" parent="1" source="uuZ5_4V9N_6O_D1vq4jB-41" edge="1">
          <mxGeometry relative="1" as="geometry">
            <mxPoint x="-350" y="-1170" as="targetPoint" />
            <Array as="points">
              <mxPoint x="-160" y="-1170" />
            </Array>
          </mxGeometry>
        </mxCell>
        <mxCell id="uuZ5_4V9N_6O_D1vq4jB-41" value="결제" style="whiteSpace=wrap;html=1;rounded=0;" parent="1" vertex="1">
          <mxGeometry x="-220" y="-1350" width="120" height="60" as="geometry" />
        </mxCell>
        <mxCell id="wMbTXYFd00fgI91BMli0-47" value="자주찾는질문" style="rounded=0;whiteSpace=wrap;html=1;" parent="1" vertex="1">
          <mxGeometry x="-410" y="-1070" width="100" height="30" as="geometry" />
        </mxCell>
        <mxCell id="pPLAOlyI_o9XZUJ4gf85-21" value="list.kh" style="rounded=0;whiteSpace=wrap;html=1;fillColor=#f8cecc;strokeColor=#b85450;" parent="1" vertex="1">
          <mxGeometry x="-410" y="-1200" width="120" height="60" as="geometry" />
        </mxCell>
        <mxCell id="pPLAOlyI_o9XZUJ4gf85-47" value="member" style="text;html=1;strokeColor=none;fillColor=none;align=center;verticalAlign=middle;whiteSpace=wrap;rounded=0;" parent="1" vertex="1">
          <mxGeometry x="1010" y="-410" width="60" height="30" as="geometry" />
        </mxCell>
        <mxCell id="pPLAOlyI_o9XZUJ4gf85-49" value="&lt;font style=&quot;font-size: 20px&quot;&gt;product&lt;/font&gt;" style="text;html=1;strokeColor=none;fillColor=none;align=center;verticalAlign=middle;whiteSpace=wrap;rounded=0;" parent="1" vertex="1">
          <mxGeometry x="710" y="-1905" width="120" height="90" as="geometry" />
        </mxCell>
        <mxCell id="pPLAOlyI_o9XZUJ4gf85-58" value="cs" style="text;html=1;strokeColor=none;fillColor=none;align=center;verticalAlign=middle;whiteSpace=wrap;rounded=0;fontSize=20;" parent="1" vertex="1">
          <mxGeometry x="-840" y="-1670" width="60" height="30" as="geometry" />
        </mxCell>
        <mxCell id="pPLAOlyI_o9XZUJ4gf85-71" value="내 구매내역&lt;br&gt;buy/list.jsp" style="rounded=0;whiteSpace=wrap;html=1;" parent="1" vertex="1">
          <mxGeometry x="2070" y="-1330" width="151" height="90" as="geometry" />
        </mxCell>
        <mxCell id="uuZ5_4V9N_6O_D1vq4jB-5" value="마이페이지&lt;br&gt;mypage.jsp" style="rounded=0;whiteSpace=wrap;html=1;" parent="1" vertex="1">
          <mxGeometry x="2070" y="-970" width="151" height="90" as="geometry" />
        </mxCell>
        <mxCell id="pPLAOlyI_o9XZUJ4gf85-78" value="myPage" style="text;html=1;strokeColor=none;fillColor=none;align=center;verticalAlign=middle;whiteSpace=wrap;rounded=0;fontSize=20;" parent="1" vertex="1">
          <mxGeometry x="2560" y="-1420" width="60" height="30" as="geometry" />
        </mxCell>
        <mxCell id="pPLAOlyI_o9XZUJ4gf85-80" value="dictionary" style="text;html=1;strokeColor=none;fillColor=none;align=center;verticalAlign=middle;whiteSpace=wrap;rounded=0;fontSize=20;" parent="1" vertex="1">
          <mxGeometry x="730" y="-2978" width="60" height="30" as="geometry" />
        </mxCell>
        <mxCell id="pPLAOlyI_o9XZUJ4gf85-83" style="edgeStyle=orthogonalEdgeStyle;rounded=0;orthogonalLoop=1;jettySize=auto;html=1;fontSize=20;endArrow=none;endFill=0;" parent="1" source="pPLAOlyI_o9XZUJ4gf85-81" target="uuZ5_4V9N_6O_D1vq4jB-38" edge="1">
          <mxGeometry relative="1" as="geometry" />
        </mxCell>
        <mxCell id="pPLAOlyI_o9XZUJ4gf85-84" style="edgeStyle=orthogonalEdgeStyle;rounded=0;orthogonalLoop=1;jettySize=auto;html=1;fontSize=20;endArrow=none;endFill=0;" parent="1" source="pPLAOlyI_o9XZUJ4gf85-81" target="uuZ5_4V9N_6O_D1vq4jB-41" edge="1">
          <mxGeometry relative="1" as="geometry" />
        </mxCell>
        <mxCell id="pPLAOlyI_o9XZUJ4gf85-86" value="" style="edgeStyle=orthogonalEdgeStyle;rounded=0;orthogonalLoop=1;jettySize=auto;html=1;fontSize=20;endArrow=none;endFill=0;" parent="1" source="pPLAOlyI_o9XZUJ4gf85-81" target="pPLAOlyI_o9XZUJ4gf85-85" edge="1">
          <mxGeometry relative="1" as="geometry" />
        </mxCell>
        <mxCell id="pPLAOlyI_o9XZUJ4gf85-101" style="edgeStyle=orthogonalEdgeStyle;rounded=0;orthogonalLoop=1;jettySize=auto;html=1;fontSize=15;endArrow=none;endFill=0;" parent="1" source="pPLAOlyI_o9XZUJ4gf85-81" target="uuZ5_4V9N_6O_D1vq4jB-40" edge="1">
          <mxGeometry relative="1" as="geometry" />
        </mxCell>
        <mxCell id="pPLAOlyI_o9XZUJ4gf85-81" value="detail.kh" style="whiteSpace=wrap;html=1;rounded=0;fillColor=#f8cecc;strokeColor=#b85450;" parent="1" vertex="1">
          <mxGeometry x="-410" y="-1495" width="120" height="60" as="geometry" />
        </mxCell>
        <mxCell id="pPLAOlyI_o9XZUJ4gf85-103" value="" style="edgeStyle=orthogonalEdgeStyle;rounded=0;orthogonalLoop=1;jettySize=auto;html=1;fontSize=15;endArrow=none;endFill=0;" parent="1" source="pPLAOlyI_o9XZUJ4gf85-85" target="pPLAOlyI_o9XZUJ4gf85-102" edge="1">
          <mxGeometry relative="1" as="geometry" />
        </mxCell>
        <mxCell id="pPLAOlyI_o9XZUJ4gf85-85" value="글" style="whiteSpace=wrap;html=1;rounded=0;" parent="1" vertex="1">
          <mxGeometry x="-410" y="-1635" width="120" height="60" as="geometry" />
        </mxCell>
        <mxCell id="pPLAOlyI_o9XZUJ4gf85-100" value="" style="edgeStyle=orthogonalEdgeStyle;rounded=0;orthogonalLoop=1;jettySize=auto;html=1;fontSize=15;endArrow=none;endFill=0;" parent="1" source="pPLAOlyI_o9XZUJ4gf85-98" target="pPLAOlyI_o9XZUJ4gf85-99" edge="1">
          <mxGeometry relative="1" as="geometry" />
        </mxCell>
        <mxCell id="pPLAOlyI_o9XZUJ4gf85-98" value="QA_list&lt;span style=&quot;font-size: 12px&quot;&gt;.kh&lt;/span&gt;" style="rounded=0;whiteSpace=wrap;html=1;fontSize=15;fillColor=#f8cecc;strokeColor=#b85450;" parent="1" vertex="1">
          <mxGeometry x="-800" y="-1190" width="120" height="60" as="geometry" />
        </mxCell>
        <mxCell id="pPLAOlyI_o9XZUJ4gf85-105" value="" style="edgeStyle=orthogonalEdgeStyle;rounded=0;orthogonalLoop=1;jettySize=auto;html=1;fontSize=15;endArrow=none;endFill=0;" parent="1" source="pPLAOlyI_o9XZUJ4gf85-99" target="pPLAOlyI_o9XZUJ4gf85-104" edge="1">
          <mxGeometry relative="1" as="geometry" />
        </mxCell>
        <mxCell id="pPLAOlyI_o9XZUJ4gf85-99" value="목록" style="rounded=0;whiteSpace=wrap;html=1;fontSize=15;" parent="1" vertex="1">
          <mxGeometry x="-800" y="-1330" width="120" height="60" as="geometry" />
        </mxCell>
        <mxCell id="pPLAOlyI_o9XZUJ4gf85-102" value="delete.kh" style="whiteSpace=wrap;html=1;rounded=0;fillColor=#f8cecc;strokeColor=#b85450;" parent="1" vertex="1">
          <mxGeometry x="-410" y="-1775" width="120" height="60" as="geometry" />
        </mxCell>
        <mxCell id="pPLAOlyI_o9XZUJ4gf85-107" value="" style="edgeStyle=orthogonalEdgeStyle;rounded=0;orthogonalLoop=1;jettySize=auto;html=1;fontSize=15;endArrow=none;endFill=0;" parent="1" source="pPLAOlyI_o9XZUJ4gf85-104" target="pPLAOlyI_o9XZUJ4gf85-106" edge="1">
          <mxGeometry relative="1" as="geometry" />
        </mxCell>
        <mxCell id="pPLAOlyI_o9XZUJ4gf85-104" value="QA_detail.kh" style="rounded=0;whiteSpace=wrap;html=1;fontSize=15;fillColor=#f8cecc;strokeColor=#b85450;" parent="1" vertex="1">
          <mxGeometry x="-800" y="-1470" width="120" height="60" as="geometry" />
        </mxCell>
        <mxCell id="pPLAOlyI_o9XZUJ4gf85-106" value="글상세" style="rounded=0;whiteSpace=wrap;html=1;fontSize=15;" parent="1" vertex="1">
          <mxGeometry x="-800" y="-1610" width="120" height="60" as="geometry" />
        </mxCell>
        <mxCell id="pPLAOlyI_o9XZUJ4gf85-137" value="&lt;span style=&quot;font-size: 40px&quot;&gt;관리자 권한&lt;br&gt;삭제&lt;br&gt;&lt;/span&gt;" style="text;html=1;strokeColor=none;fillColor=none;align=center;verticalAlign=middle;whiteSpace=wrap;rounded=0;fontSize=20;" parent="1" vertex="1">
          <mxGeometry x="1860" y="-3370" width="1260" height="720" as="geometry" />
        </mxCell>
        <mxCell id="pPLAOlyI_o9XZUJ4gf85-89" value="목록별 조회" style="rounded=0;whiteSpace=wrap;html=1;fontSize=20;" parent="1" vertex="1">
          <mxGeometry x="1204" y="-1410" width="120" height="60" as="geometry" />
        </mxCell>
        <mxCell id="essqBU4h1s9IVoPfk7wr-1" value="" style="edgeStyle=orthogonalEdgeStyle;rounded=0;orthogonalLoop=1;jettySize=auto;html=1;endArrow=none;endFill=0;" parent="1" source="wMbTXYFd00fgI91BMli0-33" target="pPLAOlyI_o9XZUJ4gf85-89" edge="1">
          <mxGeometry relative="1" as="geometry">
            <Array as="points">
              <mxPoint x="1445" y="-1270" />
            </Array>
            <mxPoint x="1445" y="-1230" as="sourcePoint" />
            <mxPoint x="1264" y="-1470" as="targetPoint" />
          </mxGeometry>
        </mxCell>
        <mxCell id="essqBU4h1s9IVoPfk7wr-5" style="edgeStyle=orthogonalEdgeStyle;rounded=0;orthogonalLoop=1;jettySize=auto;html=1;endArrow=none;endFill=0;" parent="1" source="essqBU4h1s9IVoPfk7wr-3" target="wMbTXYFd00fgI91BMli0-63" edge="1">
          <mxGeometry relative="1" as="geometry" />
        </mxCell>
        <mxCell id="essqBU4h1s9IVoPfk7wr-3" value="좋아요" style="whiteSpace=wrap;html=1;fontSize=20;rounded=0;" parent="1" vertex="1">
          <mxGeometry x="1590" y="-1535" width="120" height="60" as="geometry" />
        </mxCell>
        <mxCell id="o1LY4lYA1ahA4SfnEf8r-1" value="&lt;font style=&quot;font-size: 20px;&quot;&gt;insert.ez&lt;/font&gt;" style="rounded=0;whiteSpace=wrap;html=1;fillColor=#f8cecc;strokeColor=#b85450;" parent="1" vertex="1">
          <mxGeometry x="1400" y="-1535" width="120" height="60" as="geometry" />
        </mxCell>
        <mxCell id="o1LY4lYA1ahA4SfnEf8r-3" value="&lt;font style=&quot;font-size: 20px;&quot;&gt;insertAmount.ez&lt;/font&gt;" style="rounded=0;whiteSpace=wrap;html=1;fillColor=#f8cecc;strokeColor=#b85450;" parent="1" vertex="1">
          <mxGeometry x="920" y="-1535" width="160" height="60" as="geometry" />
        </mxCell>
        <mxCell id="o1LY4lYA1ahA4SfnEf8r-4" value="&lt;font style=&quot;font-size: 20px;&quot;&gt;order.ez&lt;/font&gt;" style="rounded=0;whiteSpace=wrap;html=1;fillColor=#f8cecc;strokeColor=#b85450;" parent="1" vertex="1">
          <mxGeometry x="1046.5" y="-1710" width="120" height="60" as="geometry" />
        </mxCell>
        <mxCell id="o1LY4lYA1ahA4SfnEf8r-5" value="" style="edgeStyle=orthogonalEdgeStyle;rounded=0;orthogonalLoop=1;jettySize=auto;html=1;endArrow=none;endFill=0;" parent="1" source="wMbTXYFd00fgI91BMli0-77" target="o1LY4lYA1ahA4SfnEf8r-4" edge="1">
          <mxGeometry relative="1" as="geometry">
            <mxPoint x="990" y="-1680" as="sourcePoint" />
            <mxPoint x="1210" y="-1680" as="targetPoint" />
          </mxGeometry>
        </mxCell>
        <mxCell id="o1LY4lYA1ahA4SfnEf8r-7" value="&lt;font style=&quot;font-size: 20px;&quot;&gt;paying.ez&lt;br&gt;&lt;/font&gt;" style="rounded=0;whiteSpace=wrap;html=1;fillColor=#f8cecc;strokeColor=#b85450;" parent="1" vertex="1">
          <mxGeometry x="1046.5" y="-1800" width="120" height="60" as="geometry" />
        </mxCell>
        <mxCell id="o1LY4lYA1ahA4SfnEf8r-8" value="" style="edgeStyle=orthogonalEdgeStyle;rounded=0;orthogonalLoop=1;jettySize=auto;html=1;fontSize=20;endArrow=none;endFill=0;" parent="1" source="wMbTXYFd00fgI91BMli0-72" target="o1LY4lYA1ahA4SfnEf8r-7" edge="1">
          <mxGeometry relative="1" as="geometry">
            <mxPoint x="1270" y="-1710" as="sourcePoint" />
            <mxPoint x="911" y="-1770" as="targetPoint" />
            <Array as="points">
              <mxPoint x="1270" y="-1770" />
            </Array>
          </mxGeometry>
        </mxCell>
        <mxCell id="o1LY4lYA1ahA4SfnEf8r-9" value="&lt;span style=&quot;font-size: 20px;&quot;&gt;quickOrder.ez&lt;/span&gt;" style="rounded=0;whiteSpace=wrap;html=1;fillColor=#f8cecc;strokeColor=#b85450;" parent="1" vertex="1">
          <mxGeometry x="1205" y="-1620" width="130" height="60" as="geometry" />
        </mxCell>
        <mxCell id="o1LY4lYA1ahA4SfnEf8r-11" value="구매 과정&lt;br&gt;1. 제품 상세 페이지에서 바로 구매시&lt;br&gt;&lt;font style=&quot;font-size: 16px;&quot;&gt;&amp;nbsp;&lt;font style=&quot;font-size: 16px;&quot;&gt;- quickOrder.ez 서블릿으로 제품 번호와 수량 전송 &lt;br&gt;&amp;nbsp;- 서블릿 내에서 order_no 생성하여 order 테이블에 제품 번호, 제품가격, 수량, 총 가격 등록&lt;br&gt;&amp;nbsp;- paying 테이블 생성하여 order_no,member_id 등록 후 paying/insert.jsp 페이지로 주문 번호와 이동&lt;br&gt;&amp;nbsp;- insert.jsp 페이지에서 수령인, 연락처, 주소, 배송비 결제 여부 등을 확인 후 결제&lt;br&gt;&amp;nbsp;- 페이지 종료 전 포인트 증가 및 재고 감소&lt;br&gt;- 구매 완료&lt;br&gt;&lt;/font&gt;&lt;/font&gt;" style="text;html=1;strokeColor=none;fillColor=none;align=left;verticalAlign=top;whiteSpace=wrap;rounded=0;fontSize=20;" parent="1" vertex="1">
          <mxGeometry x="1036.5" y="-2380" width="340" height="300" as="geometry" />
        </mxCell>
        <mxCell id="o1LY4lYA1ahA4SfnEf8r-12" value="구매 과정&lt;br&gt;2. 장바구니에서 구매시&lt;br&gt;&lt;font style=&quot;font-size: 16px;&quot;&gt;&amp;nbsp;&lt;font style=&quot;font-size: 16px;&quot;&gt;- order.ez 서블릿으로 제품 번호와 수량 전송 체크 박스로 다수의 데이터 허용&lt;br&gt;&amp;nbsp;- 서블릿 내에서 order_no 생성하여 하나의 order_no에 반복문을 이용하여 다수의 제품 번호, 제품가격, 수량, 총 가격 등록&lt;br&gt;&amp;nbsp;- paying 테이블 생성하여 order_no,member_id 등록 후 paying/insert.jsp 페이지로 주문 번호와 이동&lt;br&gt;&amp;nbsp;- insert.jsp 페이지에서 수령인, 연락처, 주소, 배송비 결제 여부 등을 확인 후 결제&lt;br&gt;&amp;nbsp;- 페이지 종료 전 포인트 증가 및 재고 감소&lt;br&gt;- 구매 완료&lt;br&gt;&lt;/font&gt;&lt;/font&gt;" style="text;html=1;strokeColor=none;fillColor=none;align=left;verticalAlign=top;whiteSpace=wrap;rounded=0;fontSize=20;" parent="1" vertex="1">
          <mxGeometry x="1400" y="-2390" width="340" height="320" as="geometry" />
        </mxCell>
        <mxCell id="o1LY4lYA1ahA4SfnEf8r-14" value="&lt;font style=&quot;font-size: 20px;&quot;&gt;cancel.ez&lt;br&gt;&lt;/font&gt;" style="rounded=0;whiteSpace=wrap;html=1;fillColor=#f8cecc;strokeColor=#b85450;" parent="1" vertex="1">
          <mxGeometry x="870" y="-2090" width="120" height="60" as="geometry" />
        </mxCell>
        <mxCell id="F8ZkxFvzdjKbud3mfMzZ-34" style="edgeStyle=orthogonalEdgeStyle;rounded=0;orthogonalLoop=1;jettySize=auto;html=1;" parent="1" source="F8ZkxFvzdjKbud3mfMzZ-4" target="F8ZkxFvzdjKbud3mfMzZ-33" edge="1">
          <mxGeometry relative="1" as="geometry">
            <Array as="points">
              <mxPoint x="585" y="-360" />
              <mxPoint x="585" y="-360" />
            </Array>
          </mxGeometry>
        </mxCell>
        <mxCell id="F8ZkxFvzdjKbud3mfMzZ-35" value="글번호" style="edgeLabel;html=1;align=center;verticalAlign=middle;resizable=0;points=[];" parent="F8ZkxFvzdjKbud3mfMzZ-34" vertex="1" connectable="0">
          <mxGeometry x="-0.1915" y="1" relative="1" as="geometry">
            <mxPoint x="4" y="-3" as="offset" />
          </mxGeometry>
        </mxCell>
        <mxCell id="F8ZkxFvzdjKbud3mfMzZ-36" value="댓글번호" style="edgeLabel;html=1;align=center;verticalAlign=middle;resizable=0;points=[];" parent="F8ZkxFvzdjKbud3mfMzZ-34" vertex="1" connectable="0">
          <mxGeometry x="0.1162" y="-2" relative="1" as="geometry">
            <mxPoint x="5" y="-10" as="offset" />
          </mxGeometry>
        </mxCell>
        <mxCell id="F8ZkxFvzdjKbud3mfMzZ-37" value="아이디(본인)&lt;br&gt;확인" style="edgeLabel;html=1;align=center;verticalAlign=middle;resizable=0;points=[];" parent="F8ZkxFvzdjKbud3mfMzZ-34" vertex="1" connectable="0">
          <mxGeometry x="0.2701" y="-3" relative="1" as="geometry">
            <mxPoint x="6" y="17" as="offset" />
          </mxGeometry>
        </mxCell>
        <mxCell id="F8ZkxFvzdjKbud3mfMzZ-4" value="전체게시판&lt;br&gt;list.jsp" style="rounded=0;whiteSpace=wrap;html=1;" parent="1" vertex="1">
          <mxGeometry x="520" y="-470" width="110" height="60" as="geometry" />
        </mxCell>
        <mxCell id="F8ZkxFvzdjKbud3mfMzZ-29" style="edgeStyle=orthogonalEdgeStyle;rounded=0;orthogonalLoop=1;jettySize=auto;html=1;exitX=1;exitY=0.5;exitDx=0;exitDy=0;entryX=0;entryY=0.5;entryDx=0;entryDy=0;" parent="1" source="F8ZkxFvzdjKbud3mfMzZ-5" target="F8ZkxFvzdjKbud3mfMzZ-4" edge="1">
          <mxGeometry relative="1" as="geometry" />
        </mxCell>
        <mxCell id="F8ZkxFvzdjKbud3mfMzZ-5" value="팁게시판&lt;br&gt;tip_list.jsp" style="rounded=0;whiteSpace=wrap;html=1;" parent="1" vertex="1">
          <mxGeometry x="320" y="-330" width="120" height="40" as="geometry" />
        </mxCell>
        <mxCell id="F8ZkxFvzdjKbud3mfMzZ-30" style="edgeStyle=orthogonalEdgeStyle;rounded=0;orthogonalLoop=1;jettySize=auto;html=1;exitX=1;exitY=0.5;exitDx=0;exitDy=0;entryX=0;entryY=0.5;entryDx=0;entryDy=0;" parent="1" source="F8ZkxFvzdjKbud3mfMzZ-6" target="F8ZkxFvzdjKbud3mfMzZ-4" edge="1">
          <mxGeometry relative="1" as="geometry" />
        </mxCell>
        <mxCell id="F8ZkxFvzdjKbud3mfMzZ-6" value="후기게시판&lt;br&gt;review_list.jsp" style="rounded=0;whiteSpace=wrap;html=1;" parent="1" vertex="1">
          <mxGeometry x="320" y="-270" width="120" height="40" as="geometry" />
        </mxCell>
        <mxCell id="F8ZkxFvzdjKbud3mfMzZ-31" style="edgeStyle=orthogonalEdgeStyle;rounded=0;orthogonalLoop=1;jettySize=auto;html=1;exitX=1;exitY=0.5;exitDx=0;exitDy=0;entryX=0;entryY=0.5;entryDx=0;entryDy=0;" parent="1" source="F8ZkxFvzdjKbud3mfMzZ-7" target="F8ZkxFvzdjKbud3mfMzZ-4" edge="1">
          <mxGeometry relative="1" as="geometry" />
        </mxCell>
        <mxCell id="F8ZkxFvzdjKbud3mfMzZ-63" value="아이디(본인)&lt;br&gt;관리자" style="edgeLabel;html=1;align=center;verticalAlign=middle;resizable=0;points=[];fontSize=11;" parent="F8ZkxFvzdjKbud3mfMzZ-31" vertex="1" connectable="0">
          <mxGeometry x="-0.2222" y="1" relative="1" as="geometry">
            <mxPoint as="offset" />
          </mxGeometry>
        </mxCell>
        <mxCell id="F8ZkxFvzdjKbud3mfMzZ-7" value="문의게시판&lt;br&gt;qna_list.jsp" style="rounded=0;whiteSpace=wrap;html=1;" parent="1" vertex="1">
          <mxGeometry x="320" y="-490" width="120" height="40" as="geometry" />
        </mxCell>
        <mxCell id="F8ZkxFvzdjKbud3mfMzZ-15" value="" style="edgeStyle=orthogonalEdgeStyle;rounded=0;orthogonalLoop=1;jettySize=auto;html=1;entryX=0;entryY=0.5;entryDx=0;entryDy=0;" parent="1" source="F8ZkxFvzdjKbud3mfMzZ-8" target="F8ZkxFvzdjKbud3mfMzZ-4" edge="1">
          <mxGeometry relative="1" as="geometry" />
        </mxCell>
        <mxCell id="F8ZkxFvzdjKbud3mfMzZ-8" value="자유게시판&lt;br&gt;free_list.jsp" style="rounded=0;whiteSpace=wrap;html=1;" parent="1" vertex="1">
          <mxGeometry x="320" y="-385" width="120" height="40" as="geometry" />
        </mxCell>
        <mxCell id="F8ZkxFvzdjKbud3mfMzZ-51" style="edgeStyle=orthogonalEdgeStyle;rounded=0;orthogonalLoop=1;jettySize=auto;html=1;exitX=1;exitY=0.5;exitDx=0;exitDy=0;entryX=0;entryY=0.5;entryDx=0;entryDy=0;fontSize=11;" parent="1" source="F8ZkxFvzdjKbud3mfMzZ-9" target="F8ZkxFvzdjKbud3mfMzZ-4" edge="1">
          <mxGeometry relative="1" as="geometry" />
        </mxCell>
        <mxCell id="F8ZkxFvzdjKbud3mfMzZ-60" style="edgeStyle=orthogonalEdgeStyle;rounded=0;orthogonalLoop=1;jettySize=auto;html=1;exitX=0.75;exitY=1;exitDx=0;exitDy=0;entryX=1;entryY=0.5;entryDx=0;entryDy=0;fontSize=11;" parent="1" source="F8ZkxFvzdjKbud3mfMzZ-33" target="F8ZkxFvzdjKbud3mfMzZ-39" edge="1">
          <mxGeometry relative="1" as="geometry" />
        </mxCell>
        <mxCell id="F8ZkxFvzdjKbud3mfMzZ-61" value="아이디" style="edgeLabel;html=1;align=center;verticalAlign=middle;resizable=0;points=[];fontSize=11;" parent="F8ZkxFvzdjKbud3mfMzZ-60" vertex="1" connectable="0">
          <mxGeometry x="-0.4163" y="-2" relative="1" as="geometry">
            <mxPoint as="offset" />
          </mxGeometry>
        </mxCell>
        <mxCell id="F8ZkxFvzdjKbud3mfMzZ-70" style="edgeStyle=orthogonalEdgeStyle;rounded=0;orthogonalLoop=1;jettySize=auto;html=1;exitX=0.25;exitY=1;exitDx=0;exitDy=0;entryX=1;entryY=0.5;entryDx=0;entryDy=0;fontSize=11;" parent="1" source="F8ZkxFvzdjKbud3mfMzZ-33" target="F8ZkxFvzdjKbud3mfMzZ-65" edge="1">
          <mxGeometry relative="1" as="geometry" />
        </mxCell>
        <mxCell id="F8ZkxFvzdjKbud3mfMzZ-71" value="글번호" style="edgeLabel;html=1;align=center;verticalAlign=middle;resizable=0;points=[];fontSize=11;" parent="F8ZkxFvzdjKbud3mfMzZ-70" vertex="1" connectable="0">
          <mxGeometry x="0.2066" y="-1" relative="1" as="geometry">
            <mxPoint x="-32" y="1" as="offset" />
          </mxGeometry>
        </mxCell>
        <mxCell id="F8ZkxFvzdjKbud3mfMzZ-78" style="edgeStyle=orthogonalEdgeStyle;rounded=0;orthogonalLoop=1;jettySize=auto;html=1;exitX=0.5;exitY=1;exitDx=0;exitDy=0;entryX=0;entryY=0.5;entryDx=0;entryDy=0;fontSize=11;" parent="1" source="F8ZkxFvzdjKbud3mfMzZ-33" target="F8ZkxFvzdjKbud3mfMzZ-77" edge="1">
          <mxGeometry relative="1" as="geometry" />
        </mxCell>
        <mxCell id="F8ZkxFvzdjKbud3mfMzZ-79" value="글번호" style="edgeLabel;html=1;align=center;verticalAlign=middle;resizable=0;points=[];fontSize=11;" parent="F8ZkxFvzdjKbud3mfMzZ-78" vertex="1" connectable="0">
          <mxGeometry x="0.3735" y="-3" relative="1" as="geometry">
            <mxPoint x="12" y="-3" as="offset" />
          </mxGeometry>
        </mxCell>
        <mxCell id="F8ZkxFvzdjKbud3mfMzZ-106" style="edgeStyle=orthogonalEdgeStyle;rounded=0;orthogonalLoop=1;jettySize=auto;html=1;exitX=0;exitY=1;exitDx=0;exitDy=0;entryX=0.5;entryY=1;entryDx=0;entryDy=0;fontSize=10;" parent="1" source="F8ZkxFvzdjKbud3mfMzZ-33" target="F8ZkxFvzdjKbud3mfMzZ-84" edge="1">
          <mxGeometry relative="1" as="geometry">
            <Array as="points">
              <mxPoint x="580" y="-30" />
              <mxPoint x="580" y="40" />
              <mxPoint x="425" y="40" />
            </Array>
          </mxGeometry>
        </mxCell>
        <mxCell id="F8ZkxFvzdjKbud3mfMzZ-107" value="글번호" style="edgeLabel;html=1;align=center;verticalAlign=middle;resizable=0;points=[];fontSize=10;" parent="F8ZkxFvzdjKbud3mfMzZ-106" vertex="1" connectable="0">
          <mxGeometry x="0.0528" relative="1" as="geometry">
            <mxPoint x="-9" as="offset" />
          </mxGeometry>
        </mxCell>
        <mxCell id="F8ZkxFvzdjKbud3mfMzZ-33" value="글 상세 페이지&lt;br&gt;deteil.jsp" style="rounded=0;whiteSpace=wrap;html=1;" parent="1" vertex="1">
          <mxGeometry x="562" y="-90" width="110" height="60" as="geometry" />
        </mxCell>
        <mxCell id="F8ZkxFvzdjKbud3mfMzZ-48" style="edgeStyle=orthogonalEdgeStyle;rounded=0;orthogonalLoop=1;jettySize=auto;html=1;exitX=0;exitY=0.75;exitDx=0;exitDy=0;entryX=1;entryY=0.75;entryDx=0;entryDy=0;fontSize=11;" parent="1" source="F8ZkxFvzdjKbud3mfMzZ-38" target="F8ZkxFvzdjKbud3mfMzZ-4" edge="1">
          <mxGeometry relative="1" as="geometry">
            <Array as="points">
              <mxPoint x="660" y="-105" />
              <mxPoint x="660" y="-425" />
            </Array>
          </mxGeometry>
        </mxCell>
        <mxCell id="F8ZkxFvzdjKbud3mfMzZ-75" value="&lt;span style=&quot;color: rgba(0 , 0 , 0 , 0) ; font-family: monospace ; font-size: 0px ; background-color: rgb(248 , 249 , 250)&quot;&gt;%3CmxGraphModel%3E%3Croot%3E%3CmxCell%20id%3D%220%22%2F%3E%3CmxCell%20id%3D%221%22%20parent%3D%220%22%2F%3E%3CmxCell%20id%3D%222%22%20value%3D%22%EC%95%84%EC%9D%B4%EB%94%94%26lt%3Bbr%26gt%3B%EA%B8%80%EB%84%98%EB%B2%84%26lt%3Bbr%26gt%3B%EC%B9%B4%ED%85%8C%EA%B3%A0%EB%A6%AC%26lt%3Bbr%26gt%3B%EA%B8%80%EC%A0%9C%EB%AA%A9%26lt%3Bbr%26gt%3B%EA%B8%80%EB%82%B4%EC%9A%A9%26lt%3Bbr%26gt%3B%EC%97%85%EB%A1%9C%EB%93%9C%ED%8C%8C%EC%9D%BC%22%20style%3D%22edgeLabel%3Bhtml%3D1%3Balign%3Dcenter%3BverticalAlign%3Dmiddle%3Bresizable%3D0%3Bpoints%3D%5B%5D%3BfontSize%3D11%3B%22%20vertex%3D%221%22%20connectable%3D%220%22%20parent%3D%221%22%3E%3CmxGeometry%20x%3D%22745%22%20y%3D%22-247%22%20as%3D%22geometry%22%2F%3E%3C%2FmxCell%3E%3C%2Froot%3E%3C%2FmxGraphModel%3E&lt;/span&gt;" style="edgeLabel;html=1;align=center;verticalAlign=middle;resizable=0;points=[];fontSize=11;" parent="F8ZkxFvzdjKbud3mfMzZ-48" vertex="1" connectable="0">
          <mxGeometry x="0.1006" y="-2" relative="1" as="geometry">
            <mxPoint as="offset" />
          </mxGeometry>
        </mxCell>
        <mxCell id="F8ZkxFvzdjKbud3mfMzZ-76" value="아이디&lt;br&gt;글번호&lt;br&gt;카테고리&lt;br&gt;글제목&lt;br&gt;글내용&lt;br&gt;업로드파일" style="edgeLabel;html=1;align=center;verticalAlign=middle;resizable=0;points=[];fontSize=11;" parent="F8ZkxFvzdjKbud3mfMzZ-48" vertex="1" connectable="0">
          <mxGeometry x="0.0567" y="1" relative="1" as="geometry">
            <mxPoint y="26" as="offset" />
          </mxGeometry>
        </mxCell>
        <mxCell id="F8ZkxFvzdjKbud3mfMzZ-38" value="글쓰기&lt;br&gt;write.ez" style="rounded=0;whiteSpace=wrap;html=1;fillColor=#f8cecc;strokeColor=#b85450;" parent="1" vertex="1">
          <mxGeometry x="690" y="-150" width="110" height="60" as="geometry" />
        </mxCell>
        <mxCell id="F8ZkxFvzdjKbud3mfMzZ-41" style="edgeStyle=orthogonalEdgeStyle;rounded=0;orthogonalLoop=1;jettySize=auto;html=1;exitX=0.5;exitY=1;exitDx=0;exitDy=0;" parent="1" source="F8ZkxFvzdjKbud3mfMzZ-39" target="F8ZkxFvzdjKbud3mfMzZ-38" edge="1">
          <mxGeometry relative="1" as="geometry">
            <mxPoint x="775" y="-260" as="targetPoint" />
            <Array as="points" />
          </mxGeometry>
        </mxCell>
        <mxCell id="F8ZkxFvzdjKbud3mfMzZ-44" value="아이디&lt;br&gt;글번호&lt;br&gt;카테고리&lt;br&gt;글제목&lt;br&gt;글내용&lt;br&gt;업로드파일" style="edgeLabel;html=1;align=center;verticalAlign=middle;resizable=0;points=[];fontSize=11;" parent="F8ZkxFvzdjKbud3mfMzZ-41" vertex="1" connectable="0">
          <mxGeometry x="-0.3538" y="-4" relative="1" as="geometry">
            <mxPoint x="4" y="18" as="offset" />
          </mxGeometry>
        </mxCell>
        <mxCell id="F8ZkxFvzdjKbud3mfMzZ-39" value="글쓰기&lt;br&gt;write.jsp" style="rounded=0;whiteSpace=wrap;html=1;" parent="1" vertex="1">
          <mxGeometry x="690" y="-380" width="110" height="60" as="geometry" />
        </mxCell>
        <mxCell id="F8ZkxFvzdjKbud3mfMzZ-9" value="공지게시판&lt;br&gt;notice_list.jsp" style="rounded=0;whiteSpace=wrap;html=1;" parent="1" vertex="1">
          <mxGeometry x="320" y="-215" width="120" height="40" as="geometry" />
        </mxCell>
        <mxCell id="F8ZkxFvzdjKbud3mfMzZ-64" style="edgeStyle=orthogonalEdgeStyle;rounded=0;orthogonalLoop=1;jettySize=auto;html=1;exitX=1;exitY=0.5;exitDx=0;exitDy=0;fontSize=11;" parent="1" source="F8ZkxFvzdjKbud3mfMzZ-58" target="F8ZkxFvzdjKbud3mfMzZ-39" edge="1">
          <mxGeometry relative="1" as="geometry">
            <Array as="points">
              <mxPoint x="745" y="-440" />
            </Array>
          </mxGeometry>
        </mxCell>
        <mxCell id="F8ZkxFvzdjKbud3mfMzZ-58" value="아이디" style="text;html=1;strokeColor=none;fillColor=none;align=center;verticalAlign=middle;whiteSpace=wrap;rounded=0;fontSize=11;" parent="1" vertex="1">
          <mxGeometry x="672" y="-450" width="38" height="20" as="geometry" />
        </mxCell>
        <mxCell id="F8ZkxFvzdjKbud3mfMzZ-59" value="" style="edgeStyle=orthogonalEdgeStyle;rounded=0;orthogonalLoop=1;jettySize=auto;html=1;exitX=1;exitY=0.5;exitDx=0;exitDy=0;entryX=0.091;entryY=0.339;entryDx=0;entryDy=0;entryPerimeter=0;fontSize=11;endArrow=none;" parent="1" source="F8ZkxFvzdjKbud3mfMzZ-4" target="F8ZkxFvzdjKbud3mfMzZ-58" edge="1">
          <mxGeometry relative="1" as="geometry">
            <mxPoint x="652" y="-420.00000000000045" as="sourcePoint" />
            <mxPoint x="730.0099999999998" y="-419.65999999999985" as="targetPoint" />
            <Array as="points">
              <mxPoint x="630" y="-443" />
            </Array>
          </mxGeometry>
        </mxCell>
        <mxCell id="F8ZkxFvzdjKbud3mfMzZ-72" style="edgeStyle=orthogonalEdgeStyle;rounded=0;orthogonalLoop=1;jettySize=auto;html=1;exitX=0.5;exitY=0;exitDx=0;exitDy=0;fontSize=11;" parent="1" source="F8ZkxFvzdjKbud3mfMzZ-65" edge="1">
          <mxGeometry relative="1" as="geometry">
            <mxPoint x="530" y="-410" as="targetPoint" />
            <Array as="points">
              <mxPoint x="360" y="-150" />
              <mxPoint x="530" y="-150" />
              <mxPoint x="530" y="-410" />
            </Array>
          </mxGeometry>
        </mxCell>
        <mxCell id="F8ZkxFvzdjKbud3mfMzZ-73" value="글번호" style="edgeLabel;html=1;align=center;verticalAlign=middle;resizable=0;points=[];fontSize=11;" parent="F8ZkxFvzdjKbud3mfMzZ-72" vertex="1" connectable="0">
          <mxGeometry x="-0.2301" relative="1" as="geometry">
            <mxPoint as="offset" />
          </mxGeometry>
        </mxCell>
        <mxCell id="F8ZkxFvzdjKbud3mfMzZ-65" value="삭제&lt;br&gt;delete.ez" style="rounded=0;whiteSpace=wrap;html=1;fillColor=#f8cecc;strokeColor=#b85450;" parent="1" vertex="1">
          <mxGeometry x="290" y="50" width="110" height="60" as="geometry" />
        </mxCell>
        <mxCell id="F8ZkxFvzdjKbud3mfMzZ-80" style="edgeStyle=orthogonalEdgeStyle;rounded=0;orthogonalLoop=1;jettySize=auto;html=1;exitX=1;exitY=0.5;exitDx=0;exitDy=0;entryX=0.5;entryY=0;entryDx=0;entryDy=0;fontSize=11;" parent="1" source="F8ZkxFvzdjKbud3mfMzZ-77" target="F8ZkxFvzdjKbud3mfMzZ-4" edge="1">
          <mxGeometry relative="1" as="geometry">
            <Array as="points">
              <mxPoint x="840" y="80" />
              <mxPoint x="840" y="-480" />
              <mxPoint x="575" y="-480" />
            </Array>
          </mxGeometry>
        </mxCell>
        <mxCell id="F8ZkxFvzdjKbud3mfMzZ-81" value="아이디&lt;br&gt;글번호&lt;br&gt;카테고리&lt;br&gt;글제목&lt;br&gt;글내용&lt;br&gt;업로드파일" style="edgeLabel;html=1;align=center;verticalAlign=middle;resizable=0;points=[];fontSize=11;" parent="F8ZkxFvzdjKbud3mfMzZ-80" vertex="1" connectable="0">
          <mxGeometry x="0.4661" y="6" relative="1" as="geometry">
            <mxPoint x="47" y="24" as="offset" />
          </mxGeometry>
        </mxCell>
        <mxCell id="F8ZkxFvzdjKbud3mfMzZ-77" value="수정&lt;br&gt;edit.ez" style="rounded=0;whiteSpace=wrap;html=1;labelBackgroundColor=none;fillColor=#f8cecc;strokeColor=#b85450;" parent="1" vertex="1">
          <mxGeometry x="710" y="50" width="110" height="60" as="geometry" />
        </mxCell>
        <mxCell id="F8ZkxFvzdjKbud3mfMzZ-82" value="board" style="text;html=1;strokeColor=none;fillColor=none;align=center;verticalAlign=middle;whiteSpace=wrap;rounded=0;fontSize=20;" parent="1" vertex="1">
          <mxGeometry x="330" y="-550" width="60" height="30" as="geometry" />
        </mxCell>
        <mxCell id="F8ZkxFvzdjKbud3mfMzZ-105" style="edgeStyle=orthogonalEdgeStyle;rounded=0;orthogonalLoop=1;jettySize=auto;html=1;exitX=1;exitY=0.5;exitDx=0;exitDy=0;entryX=-0.05;entryY=0.021;entryDx=0;entryDy=0;entryPerimeter=0;fontSize=10;" parent="1" source="F8ZkxFvzdjKbud3mfMzZ-84" target="F8ZkxFvzdjKbud3mfMzZ-33" edge="1">
          <mxGeometry relative="1" as="geometry" />
        </mxCell>
        <mxCell id="F8ZkxFvzdjKbud3mfMzZ-121" value="댓글내용" style="edgeLabel;html=1;align=center;verticalAlign=middle;resizable=0;points=[];fontSize=10;" parent="F8ZkxFvzdjKbud3mfMzZ-105" vertex="1" connectable="0">
          <mxGeometry x="-0.2553" y="1" relative="1" as="geometry">
            <mxPoint y="-10" as="offset" />
          </mxGeometry>
        </mxCell>
        <mxCell id="F8ZkxFvzdjKbud3mfMzZ-115" style="edgeStyle=orthogonalEdgeStyle;rounded=0;orthogonalLoop=1;jettySize=auto;html=1;exitX=0.5;exitY=0;exitDx=0;exitDy=0;entryX=0.5;entryY=1;entryDx=0;entryDy=0;fontSize=10;shape=link;" parent="1" source="F8ZkxFvzdjKbud3mfMzZ-84" target="F8ZkxFvzdjKbud3mfMzZ-94" edge="1">
          <mxGeometry relative="1" as="geometry" />
        </mxCell>
        <mxCell id="F8ZkxFvzdjKbud3mfMzZ-84" value="댓글 쓰기&lt;br&gt;reply_insert.ez" style="rounded=0;whiteSpace=wrap;html=1;fillColor=#f8cecc;strokeColor=#b85450;" parent="1" vertex="1">
          <mxGeometry x="370" y="-30" width="110" height="30" as="geometry" />
        </mxCell>
        <mxCell id="F8ZkxFvzdjKbud3mfMzZ-96" style="edgeStyle=orthogonalEdgeStyle;rounded=0;orthogonalLoop=1;jettySize=auto;html=1;exitX=1;exitY=0.5;exitDx=0;exitDy=0;fontSize=11;" parent="1" source="F8ZkxFvzdjKbud3mfMzZ-94" edge="1">
          <mxGeometry relative="1" as="geometry">
            <mxPoint x="562" y="-90" as="targetPoint" />
            <Array as="points">
              <mxPoint x="521" y="-65" />
              <mxPoint x="521" y="-90" />
              <mxPoint x="562" y="-90" />
            </Array>
          </mxGeometry>
        </mxCell>
        <mxCell id="F8ZkxFvzdjKbud3mfMzZ-116" style="edgeStyle=orthogonalEdgeStyle;shape=link;rounded=0;orthogonalLoop=1;jettySize=auto;html=1;exitX=0.5;exitY=0;exitDx=0;exitDy=0;entryX=0.5;entryY=1;entryDx=0;entryDy=0;fontSize=10;" parent="1" source="F8ZkxFvzdjKbud3mfMzZ-94" target="F8ZkxFvzdjKbud3mfMzZ-98" edge="1">
          <mxGeometry relative="1" as="geometry" />
        </mxCell>
        <mxCell id="F8ZkxFvzdjKbud3mfMzZ-94" value="댓글 삭제&lt;br&gt;reply_delete.ez" style="rounded=0;whiteSpace=wrap;html=1;fillColor=#f8cecc;strokeColor=#b85450;" parent="1" vertex="1">
          <mxGeometry x="370" y="-80" width="110" height="30" as="geometry" />
        </mxCell>
        <mxCell id="F8ZkxFvzdjKbud3mfMzZ-99" style="edgeStyle=orthogonalEdgeStyle;rounded=0;orthogonalLoop=1;jettySize=auto;html=1;exitX=1;exitY=0.5;exitDx=0;exitDy=0;fontSize=10;" parent="1" source="F8ZkxFvzdjKbud3mfMzZ-98" edge="1">
          <mxGeometry relative="1" as="geometry">
            <mxPoint x="562" y="-90" as="targetPoint" />
            <Array as="points">
              <mxPoint x="521" y="-120" />
              <mxPoint x="521" y="-90" />
              <mxPoint x="562" y="-90" />
            </Array>
          </mxGeometry>
        </mxCell>
        <mxCell id="F8ZkxFvzdjKbud3mfMzZ-118" value="댓글번호&lt;br&gt;글번호" style="edgeLabel;html=1;align=center;verticalAlign=middle;resizable=0;points=[];fontSize=10;" parent="F8ZkxFvzdjKbud3mfMzZ-99" vertex="1" connectable="0">
          <mxGeometry x="0.1941" relative="1" as="geometry">
            <mxPoint x="9" y="4" as="offset" />
          </mxGeometry>
        </mxCell>
        <mxCell id="F8ZkxFvzdjKbud3mfMzZ-120" value="댓글내용" style="edgeLabel;html=1;align=center;verticalAlign=middle;resizable=0;points=[];fontSize=10;" parent="F8ZkxFvzdjKbud3mfMzZ-99" vertex="1" connectable="0">
          <mxGeometry x="-0.5385" relative="1" as="geometry">
            <mxPoint as="offset" />
          </mxGeometry>
        </mxCell>
        <mxCell id="F8ZkxFvzdjKbud3mfMzZ-98" value="댓글 수정&lt;br&gt;reply_delete.ez" style="rounded=0;whiteSpace=wrap;html=1;fillColor=#f8cecc;strokeColor=#b85450;" parent="1" vertex="1">
          <mxGeometry x="370" y="-135" width="110" height="30" as="geometry" />
        </mxCell>
        <mxCell id="uut_nFxTRFVd7JwxGQTN-3" value="성별, 나이&lt;br&gt;키, 몸무게 입력" style="text;html=1;strokeColor=none;fillColor=none;align=center;verticalAlign=middle;whiteSpace=wrap;rounded=0;" parent="1" vertex="1">
          <mxGeometry x="250" y="-2780" width="60" height="30" as="geometry" />
        </mxCell>
        <mxCell id="uut_nFxTRFVd7JwxGQTN-4" value="" style="endArrow=classic;html=1;rounded=0;exitX=1.004;exitY=0.54;exitDx=0;exitDy=0;exitPerimeter=0;" parent="1" source="wMbTXYFd00fgI91BMli0-22" target="uuZ5_4V9N_6O_D1vq4jB-5" edge="1">
          <mxGeometry width="50" height="50" relative="1" as="geometry">
            <mxPoint x="450" y="-1140" as="sourcePoint" />
            <mxPoint x="500" y="-1190" as="targetPoint" />
          </mxGeometry>
        </mxCell>
        <mxCell id="uut_nFxTRFVd7JwxGQTN-5" value="" style="endArrow=classic;html=1;rounded=0;entryX=0.5;entryY=1;entryDx=0;entryDy=0;" parent="1" source="uuZ5_4V9N_6O_D1vq4jB-5" target="pPLAOlyI_o9XZUJ4gf85-71" edge="1">
          <mxGeometry width="50" height="50" relative="1" as="geometry">
            <mxPoint x="2060" y="-1140" as="sourcePoint" />
            <mxPoint x="2110" y="-1190" as="targetPoint" />
          </mxGeometry>
        </mxCell>
        <mxCell id="uut_nFxTRFVd7JwxGQTN-6" value="칼로리처방&lt;br&gt;dict.ez" style="rounded=0;whiteSpace=wrap;html=1;fillColor=#f8cecc;strokeColor=#b85450;" parent="1" vertex="1">
          <mxGeometry x="184" y="-2910" width="120" height="60" as="geometry" />
        </mxCell>
        <mxCell id="uut_nFxTRFVd7JwxGQTN-7" value="" style="endArrow=classic;html=1;rounded=0;exitX=0.5;exitY=0;exitDx=0;exitDy=0;entryX=0.5;entryY=1;entryDx=0;entryDy=0;" parent="1" source="wMbTXYFd00fgI91BMli0-24" target="uut_nFxTRFVd7JwxGQTN-6" edge="1">
          <mxGeometry width="50" height="50" relative="1" as="geometry">
            <mxPoint x="460" y="-2690" as="sourcePoint" />
            <mxPoint x="510" y="-2740" as="targetPoint" />
            <Array as="points">
              <mxPoint x="244" y="-2760" />
            </Array>
          </mxGeometry>
        </mxCell>
        <mxCell id="uut_nFxTRFVd7JwxGQTN-8" value="" style="endArrow=classic;html=1;rounded=0;exitX=1;exitY=0.5;exitDx=0;exitDy=0;entryX=0;entryY=0.5;entryDx=0;entryDy=0;" parent="1" source="uut_nFxTRFVd7JwxGQTN-6" target="wMbTXYFd00fgI91BMli0-55" edge="1">
          <mxGeometry width="50" height="50" relative="1" as="geometry">
            <mxPoint x="460" y="-2690" as="sourcePoint" />
            <mxPoint x="510" y="-2740" as="targetPoint" />
            <Array as="points">
              <mxPoint x="480" y="-2880" />
            </Array>
          </mxGeometry>
        </mxCell>
        <mxCell id="uut_nFxTRFVd7JwxGQTN-11" value="" style="endArrow=classic;html=1;rounded=0;entryX=0.5;entryY=0;entryDx=0;entryDy=0;exitX=0;exitY=0.5;exitDx=0;exitDy=0;" parent="1" source="wMbTXYFd00fgI91BMli0-1" target="uut_nFxTRFVd7JwxGQTN-13" edge="1">
          <mxGeometry width="50" height="50" relative="1" as="geometry">
            <mxPoint x="1280" y="-200" as="sourcePoint" />
            <mxPoint x="1140" y="-240" as="targetPoint" />
            <Array as="points">
              <mxPoint x="1135" y="-310" />
            </Array>
          </mxGeometry>
        </mxCell>
        <mxCell id="uut_nFxTRFVd7JwxGQTN-12" value="아이디찾기&lt;br&gt;find_id.ez" style="rounded=0;whiteSpace=wrap;html=1;labelBackgroundColor=#FF9999;fillColor=#f8cecc;strokeColor=#b85450;" parent="1" vertex="1">
          <mxGeometry x="1080" y="-120" width="120" height="60" as="geometry" />
        </mxCell>
        <mxCell id="uut_nFxTRFVd7JwxGQTN-13" value="아이디 찾기&lt;br&gt;find_id.jsp" style="rounded=0;whiteSpace=wrap;html=1;labelBackgroundColor=#FFFFFF;" parent="1" vertex="1">
          <mxGeometry x="1075" y="-260" width="120" height="60" as="geometry" />
        </mxCell>
        <mxCell id="uut_nFxTRFVd7JwxGQTN-14" value="" style="endArrow=classic;html=1;rounded=0;exitX=0.5;exitY=1;exitDx=0;exitDy=0;entryX=0.5;entryY=0;entryDx=0;entryDy=0;startArrow=none;" parent="1" source="uut_nFxTRFVd7JwxGQTN-53" target="uut_nFxTRFVd7JwxGQTN-12" edge="1">
          <mxGeometry width="50" height="50" relative="1" as="geometry">
            <mxPoint x="910" y="-60" as="sourcePoint" />
            <mxPoint x="960" y="-110" as="targetPoint" />
          </mxGeometry>
        </mxCell>
        <mxCell id="uut_nFxTRFVd7JwxGQTN-15" value="아이디찾기 성공&lt;br&gt;find_id_success.jsp" style="rounded=0;whiteSpace=wrap;html=1;labelBackgroundColor=none;" parent="1" vertex="1">
          <mxGeometry x="1080" y="-10" width="120" height="60" as="geometry" />
        </mxCell>
        <mxCell id="uut_nFxTRFVd7JwxGQTN-16" value="" style="endArrow=classic;html=1;rounded=0;exitX=0.5;exitY=1;exitDx=0;exitDy=0;" parent="1" source="uut_nFxTRFVd7JwxGQTN-12" target="uut_nFxTRFVd7JwxGQTN-15" edge="1">
          <mxGeometry width="50" height="50" relative="1" as="geometry">
            <mxPoint x="910" y="-140" as="sourcePoint" />
            <mxPoint x="960" y="-190" as="targetPoint" />
          </mxGeometry>
        </mxCell>
        <mxCell id="uut_nFxTRFVd7JwxGQTN-17" value="" style="endArrow=classic;html=1;rounded=0;exitX=1;exitY=0.5;exitDx=0;exitDy=0;entryX=0.5;entryY=1;entryDx=0;entryDy=0;" parent="1" source="uut_nFxTRFVd7JwxGQTN-15" target="wMbTXYFd00fgI91BMli0-1" edge="1">
          <mxGeometry width="50" height="50" relative="1" as="geometry">
            <mxPoint x="910" y="-140" as="sourcePoint" />
            <mxPoint x="960" y="-190" as="targetPoint" />
            <Array as="points">
              <mxPoint x="1250" y="20" />
            </Array>
          </mxGeometry>
        </mxCell>
        <mxCell id="uut_nFxTRFVd7JwxGQTN-18" value="" style="endArrow=classic;html=1;rounded=0;exitX=0;exitY=0.5;exitDx=0;exitDy=0;entryX=0.972;entryY=1.01;entryDx=0;entryDy=0;entryPerimeter=0;" parent="1" source="uut_nFxTRFVd7JwxGQTN-15" target="wMbTXYFd00fgI91BMli0-22" edge="1">
          <mxGeometry width="50" height="50" relative="1" as="geometry">
            <mxPoint x="910" y="-140" as="sourcePoint" />
            <mxPoint x="960" y="-190" as="targetPoint" />
            <Array as="points">
              <mxPoint x="1020" y="20" />
              <mxPoint x="1020" y="-810" />
            </Array>
          </mxGeometry>
        </mxCell>
        <mxCell id="uut_nFxTRFVd7JwxGQTN-20" value="" style="endArrow=classic;html=1;rounded=0;exitX=0.5;exitY=0;exitDx=0;exitDy=0;" parent="1" source="wMbTXYFd00fgI91BMli0-57" edge="1">
          <mxGeometry width="50" height="50" relative="1" as="geometry">
            <mxPoint x="1300" y="-570" as="sourcePoint" />
            <mxPoint x="600" y="-840" as="targetPoint" />
            <Array as="points">
              <mxPoint x="1610" y="-840" />
            </Array>
          </mxGeometry>
        </mxCell>
        <mxCell id="uut_nFxTRFVd7JwxGQTN-22" value="비밀번호 찾기&lt;br&gt;find_pw.jsp" style="rounded=0;whiteSpace=wrap;html=1;labelBackgroundColor=none;" parent="1" vertex="1">
          <mxGeometry x="1270" y="-260" width="120" height="60" as="geometry" />
        </mxCell>
        <mxCell id="uut_nFxTRFVd7JwxGQTN-23" value="비밀번호 찾기&lt;br&gt;find_pw.ez" style="rounded=0;whiteSpace=wrap;html=1;labelBackgroundColor=none;fillColor=#f8cecc;strokeColor=#b85450;" parent="1" vertex="1">
          <mxGeometry x="1270" y="-120" width="120" height="60" as="geometry" />
        </mxCell>
        <mxCell id="uut_nFxTRFVd7JwxGQTN-24" value="" style="endArrow=classic;html=1;rounded=0;exitX=0.5;exitY=1;exitDx=0;exitDy=0;entryX=0.5;entryY=0;entryDx=0;entryDy=0;startArrow=none;" parent="1" source="uut_nFxTRFVd7JwxGQTN-56" target="uut_nFxTRFVd7JwxGQTN-23" edge="1">
          <mxGeometry width="50" height="50" relative="1" as="geometry">
            <mxPoint x="1160" y="-180" as="sourcePoint" />
            <mxPoint x="1210" y="-230" as="targetPoint" />
          </mxGeometry>
        </mxCell>
        <mxCell id="uut_nFxTRFVd7JwxGQTN-25" value="비밀번호 변경&amp;nbsp;&lt;br&gt;change_pw.jsp" style="rounded=0;whiteSpace=wrap;html=1;labelBackgroundColor=none;" parent="1" vertex="1">
          <mxGeometry x="1270" y="-10" width="120" height="60" as="geometry" />
        </mxCell>
        <mxCell id="uut_nFxTRFVd7JwxGQTN-26" value="" style="endArrow=classic;html=1;rounded=0;exitX=0.5;exitY=1;exitDx=0;exitDy=0;" parent="1" source="uut_nFxTRFVd7JwxGQTN-23" target="uut_nFxTRFVd7JwxGQTN-25" edge="1">
          <mxGeometry width="50" height="50" relative="1" as="geometry">
            <mxPoint x="1160" y="-180" as="sourcePoint" />
            <mxPoint x="1210" y="-230" as="targetPoint" />
          </mxGeometry>
        </mxCell>
        <mxCell id="uut_nFxTRFVd7JwxGQTN-27" value="비밀번호 변경&lt;br&gt;change_pw.ez" style="rounded=0;whiteSpace=wrap;html=1;labelBackgroundColor=none;fillColor=#f8cecc;strokeColor=#b85450;" parent="1" vertex="1">
          <mxGeometry x="1450" y="-10" width="120" height="60" as="geometry" />
        </mxCell>
        <mxCell id="uut_nFxTRFVd7JwxGQTN-28" value="" style="endArrow=classic;html=1;rounded=0;exitX=1;exitY=0.5;exitDx=0;exitDy=0;" parent="1" source="uut_nFxTRFVd7JwxGQTN-25" target="uut_nFxTRFVd7JwxGQTN-27" edge="1">
          <mxGeometry width="50" height="50" relative="1" as="geometry">
            <mxPoint x="1160" y="-120" as="sourcePoint" />
            <mxPoint x="1210" y="-170" as="targetPoint" />
          </mxGeometry>
        </mxCell>
        <mxCell id="uut_nFxTRFVd7JwxGQTN-29" value="비밀번호 변경완료&lt;br&gt;change_pw_&lt;br&gt;success.jsp" style="rounded=0;whiteSpace=wrap;html=1;labelBackgroundColor=none;" parent="1" vertex="1">
          <mxGeometry x="1450" y="-120" width="120" height="60" as="geometry" />
        </mxCell>
        <mxCell id="uut_nFxTRFVd7JwxGQTN-30" value="" style="endArrow=classic;html=1;rounded=0;exitX=0.5;exitY=0;exitDx=0;exitDy=0;entryX=0.5;entryY=1;entryDx=0;entryDy=0;startArrow=none;" parent="1" source="uut_nFxTRFVd7JwxGQTN-58" target="uut_nFxTRFVd7JwxGQTN-29" edge="1">
          <mxGeometry width="50" height="50" relative="1" as="geometry">
            <mxPoint x="1160" y="-130" as="sourcePoint" />
            <mxPoint x="1210" y="-180" as="targetPoint" />
          </mxGeometry>
        </mxCell>
        <mxCell id="uut_nFxTRFVd7JwxGQTN-31" value="" style="endArrow=classic;html=1;rounded=0;exitX=0.5;exitY=0;exitDx=0;exitDy=0;entryX=1;entryY=0.75;entryDx=0;entryDy=0;" parent="1" source="uut_nFxTRFVd7JwxGQTN-29" target="wMbTXYFd00fgI91BMli0-1" edge="1">
          <mxGeometry width="50" height="50" relative="1" as="geometry">
            <mxPoint x="1160" y="-130" as="sourcePoint" />
            <mxPoint x="1210" y="-180" as="targetPoint" />
            <Array as="points">
              <mxPoint x="1510" y="-292" />
            </Array>
          </mxGeometry>
        </mxCell>
        <mxCell id="uut_nFxTRFVd7JwxGQTN-33" value="회원가입&lt;br&gt;join.ez" style="rounded=0;whiteSpace=wrap;html=1;labelBackgroundColor=none;fillColor=#f8cecc;strokeColor=#b85450;" parent="1" vertex="1">
          <mxGeometry x="1550" y="-290" width="120" height="60" as="geometry" />
        </mxCell>
        <mxCell id="uut_nFxTRFVd7JwxGQTN-34" value="" style="endArrow=classic;html=1;rounded=0;exitX=0.5;exitY=1;exitDx=0;exitDy=0;" parent="1" source="wMbTXYFd00fgI91BMli0-57" target="uut_nFxTRFVd7JwxGQTN-33" edge="1">
          <mxGeometry width="50" height="50" relative="1" as="geometry">
            <mxPoint x="1420" y="-380" as="sourcePoint" />
            <mxPoint x="1470" y="-430" as="targetPoint" />
          </mxGeometry>
        </mxCell>
        <mxCell id="uut_nFxTRFVd7JwxGQTN-37" value="" style="endArrow=classic;html=1;rounded=0;exitX=0.25;exitY=0;exitDx=0;exitDy=0;entryX=1;entryY=0.5;entryDx=0;entryDy=0;" parent="1" source="uut_nFxTRFVd7JwxGQTN-33" target="wMbTXYFd00fgI91BMli0-1" edge="1">
          <mxGeometry width="50" height="50" relative="1" as="geometry">
            <mxPoint x="1420" y="-220" as="sourcePoint" />
            <mxPoint x="1470" y="-270" as="targetPoint" />
            <Array as="points">
              <mxPoint x="1580" y="-310" />
            </Array>
          </mxGeometry>
        </mxCell>
        <mxCell id="uut_nFxTRFVd7JwxGQTN-40" value="" style="endArrow=classic;html=1;rounded=0;exitX=0;exitY=0.25;exitDx=0;exitDy=0;entryX=0.5;entryY=1;entryDx=0;entryDy=0;" parent="1" source="wMbTXYFd00fgI91BMli0-1" target="uuZ5_4V9N_6O_D1vq4jB-2" edge="1">
          <mxGeometry width="50" height="50" relative="1" as="geometry">
            <mxPoint x="1290" y="-380" as="sourcePoint" />
            <mxPoint x="1340" y="-430" as="targetPoint" />
            <Array as="points">
              <mxPoint x="1130" y="-327" />
            </Array>
          </mxGeometry>
        </mxCell>
        <mxCell id="uut_nFxTRFVd7JwxGQTN-41" value="" style="endArrow=none;html=1;rounded=0;exitX=0;exitY=0.5;exitDx=0;exitDy=0;" parent="1" source="uut_nFxTRFVd7JwxGQTN-33" edge="1">
          <mxGeometry width="50" height="50" relative="1" as="geometry">
            <mxPoint x="1290" y="-380" as="sourcePoint" />
            <mxPoint x="1440" y="-841.4814453125" as="targetPoint" />
            <Array as="points">
              <mxPoint x="1450" y="-260" />
            </Array>
          </mxGeometry>
        </mxCell>
        <mxCell id="uut_nFxTRFVd7JwxGQTN-42" value="" style="endArrow=classic;html=1;rounded=0;exitX=0.5;exitY=0;exitDx=0;exitDy=0;entryX=1;entryY=0.5;entryDx=0;entryDy=0;" parent="1" source="pPLAOlyI_o9XZUJ4gf85-71" target="uuZ5_4V9N_6O_D1vq4jB-11" edge="1">
          <mxGeometry width="50" height="50" relative="1" as="geometry">
            <mxPoint x="2080" y="-1180" as="sourcePoint" />
            <mxPoint x="2130" y="-1230" as="targetPoint" />
            <Array as="points">
              <mxPoint x="2140" y="-1940" />
            </Array>
          </mxGeometry>
        </mxCell>
        <mxCell id="uut_nFxTRFVd7JwxGQTN-43" value="내 정보변경&lt;br&gt;edit.jsp" style="rounded=0;whiteSpace=wrap;html=1;labelBackgroundColor=none;" parent="1" vertex="1">
          <mxGeometry x="2070" y="-810" width="150" height="70" as="geometry" />
        </mxCell>
        <mxCell id="uut_nFxTRFVd7JwxGQTN-44" value="" style="endArrow=classic;html=1;rounded=0;exitX=0.5;exitY=1;exitDx=0;exitDy=0;entryX=0.5;entryY=0;entryDx=0;entryDy=0;" parent="1" source="uuZ5_4V9N_6O_D1vq4jB-5" target="uut_nFxTRFVd7JwxGQTN-43" edge="1">
          <mxGeometry width="50" height="50" relative="1" as="geometry">
            <mxPoint x="2000" y="-730" as="sourcePoint" />
            <mxPoint x="2050" y="-780" as="targetPoint" />
          </mxGeometry>
        </mxCell>
        <mxCell id="uut_nFxTRFVd7JwxGQTN-45" value="" style="endArrow=classic;html=1;rounded=0;exitX=0.5;exitY=1;exitDx=0;exitDy=0;entryX=0.319;entryY=0.658;entryDx=0;entryDy=0;entryPerimeter=0;" parent="1" source="uut_nFxTRFVd7JwxGQTN-43" target="pPLAOlyI_o9XZUJ4gf85-77" edge="1">
          <mxGeometry width="50" height="50" relative="1" as="geometry">
            <mxPoint x="2000" y="-730" as="sourcePoint" />
            <mxPoint x="2050" y="-780" as="targetPoint" />
          </mxGeometry>
        </mxCell>
        <mxCell id="uut_nFxTRFVd7JwxGQTN-46" value="내정보변경&lt;br&gt;edit.ez" style="rounded=0;whiteSpace=wrap;html=1;labelBackgroundColor=none;fillColor=#f8cecc;strokeColor=#b85450;" parent="1" vertex="1">
          <mxGeometry x="2070" y="-650" width="150" height="70" as="geometry" />
        </mxCell>
        <mxCell id="uut_nFxTRFVd7JwxGQTN-49" value="" style="endArrow=classic;html=1;rounded=0;exitX=0;exitY=0.5;exitDx=0;exitDy=0;entryX=0;entryY=0.75;entryDx=0;entryDy=0;" parent="1" source="uut_nFxTRFVd7JwxGQTN-46" target="uuZ5_4V9N_6O_D1vq4jB-5" edge="1">
          <mxGeometry width="50" height="50" relative="1" as="geometry">
            <mxPoint x="2000" y="-650" as="sourcePoint" />
            <mxPoint x="2050" y="-700" as="targetPoint" />
            <Array as="points">
              <mxPoint x="1990" y="-615" />
              <mxPoint x="1990" y="-900" />
            </Array>
          </mxGeometry>
        </mxCell>
        <mxCell id="uut_nFxTRFVd7JwxGQTN-50" value="칼로리 처방받기&lt;br&gt;dict/main.jsp" style="rounded=0;whiteSpace=wrap;html=1;labelBackgroundColor=none;" parent="1" vertex="1">
          <mxGeometry x="2280" y="-1200" width="140" height="80" as="geometry" />
        </mxCell>
        <mxCell id="uut_nFxTRFVd7JwxGQTN-51" value="" style="endArrow=classic;html=1;rounded=0;exitX=1;exitY=0.25;exitDx=0;exitDy=0;entryX=0.5;entryY=1;entryDx=0;entryDy=0;" parent="1" source="uuZ5_4V9N_6O_D1vq4jB-5" target="uut_nFxTRFVd7JwxGQTN-50" edge="1">
          <mxGeometry width="50" height="50" relative="1" as="geometry">
            <mxPoint x="2210" y="-1160" as="sourcePoint" />
            <mxPoint x="2260" y="-1210" as="targetPoint" />
            <Array as="points">
              <mxPoint x="2350" y="-947" />
            </Array>
          </mxGeometry>
        </mxCell>
        <mxCell id="uut_nFxTRFVd7JwxGQTN-52" value="" style="endArrow=classic;html=1;rounded=0;exitX=0.5;exitY=0;exitDx=0;exitDy=0;entryX=1;entryY=0.75;entryDx=0;entryDy=0;" parent="1" source="uut_nFxTRFVd7JwxGQTN-50" target="uut_nFxTRFVd7JwxGQTN-6" edge="1">
          <mxGeometry width="50" height="50" relative="1" as="geometry">
            <mxPoint x="2210" y="-1090" as="sourcePoint" />
            <mxPoint x="2260" y="-1140" as="targetPoint" />
            <Array as="points">
              <mxPoint x="2340" y="-2870" />
            </Array>
          </mxGeometry>
        </mxCell>
        <mxCell id="uut_nFxTRFVd7JwxGQTN-53" value="이름&lt;br&gt;생년월일&lt;br&gt;전화번호" style="text;html=1;strokeColor=none;fillColor=none;align=center;verticalAlign=middle;whiteSpace=wrap;rounded=0;labelBackgroundColor=none;" parent="1" vertex="1">
          <mxGeometry x="1106.5" y="-165" width="60" height="30" as="geometry" />
        </mxCell>
        <mxCell id="uut_nFxTRFVd7JwxGQTN-54" value="" style="endArrow=none;html=1;rounded=0;exitX=0.5;exitY=1;exitDx=0;exitDy=0;entryX=0.5;entryY=0;entryDx=0;entryDy=0;" parent="1" source="uut_nFxTRFVd7JwxGQTN-13" target="uut_nFxTRFVd7JwxGQTN-53" edge="1">
          <mxGeometry width="50" height="50" relative="1" as="geometry">
            <mxPoint x="1140" y="-180" as="sourcePoint" />
            <mxPoint x="1140" y="-120" as="targetPoint" />
          </mxGeometry>
        </mxCell>
        <mxCell id="uut_nFxTRFVd7JwxGQTN-55" value="" style="endArrow=classic;html=1;rounded=0;exitX=0.847;exitY=1.022;exitDx=0;exitDy=0;exitPerimeter=0;entryX=0.5;entryY=0;entryDx=0;entryDy=0;" parent="1" source="wMbTXYFd00fgI91BMli0-1" target="uut_nFxTRFVd7JwxGQTN-22" edge="1">
          <mxGeometry width="50" height="50" relative="1" as="geometry">
            <mxPoint x="860" y="-160" as="sourcePoint" />
            <mxPoint x="910" y="-210" as="targetPoint" />
          </mxGeometry>
        </mxCell>
        <mxCell id="uut_nFxTRFVd7JwxGQTN-56" value="아이디&lt;br&gt;이름&lt;br&gt;전화번호" style="text;html=1;strokeColor=none;fillColor=none;align=center;verticalAlign=middle;whiteSpace=wrap;rounded=0;labelBackgroundColor=none;" parent="1" vertex="1">
          <mxGeometry x="1295" y="-180" width="60" height="30" as="geometry" />
        </mxCell>
        <mxCell id="uut_nFxTRFVd7JwxGQTN-57" value="" style="endArrow=none;html=1;rounded=0;exitX=0.5;exitY=1;exitDx=0;exitDy=0;entryX=0.5;entryY=0;entryDx=0;entryDy=0;" parent="1" source="uut_nFxTRFVd7JwxGQTN-22" target="uut_nFxTRFVd7JwxGQTN-56" edge="1">
          <mxGeometry width="50" height="50" relative="1" as="geometry">
            <mxPoint x="1330" y="-200" as="sourcePoint" />
            <mxPoint x="1330" y="-120" as="targetPoint" />
          </mxGeometry>
        </mxCell>
        <mxCell id="uut_nFxTRFVd7JwxGQTN-58" value="새비밀번호" style="text;html=1;strokeColor=none;fillColor=none;align=center;verticalAlign=middle;whiteSpace=wrap;rounded=0;labelBackgroundColor=none;" parent="1" vertex="1">
          <mxGeometry x="1480" y="-40" width="60" height="30" as="geometry" />
        </mxCell>
        <mxCell id="uut_nFxTRFVd7JwxGQTN-59" value="" style="endArrow=none;html=1;rounded=0;exitX=0.5;exitY=0;exitDx=0;exitDy=0;entryX=0.5;entryY=1;entryDx=0;entryDy=0;" parent="1" source="uut_nFxTRFVd7JwxGQTN-27" target="uut_nFxTRFVd7JwxGQTN-58" edge="1">
          <mxGeometry width="50" height="50" relative="1" as="geometry">
            <mxPoint x="1510" y="-10" as="sourcePoint" />
            <mxPoint x="1510" y="-60" as="targetPoint" />
          </mxGeometry>
        </mxCell>
        <mxCell id="uut_nFxTRFVd7JwxGQTN-61" value="" style="endArrow=classic;html=1;rounded=0;exitX=0;exitY=0.5;exitDx=0;exitDy=0;entryX=0.75;entryY=0;entryDx=0;entryDy=0;" parent="1" source="wMbTXYFd00fgI91BMli0-57" target="wMbTXYFd00fgI91BMli0-1" edge="1">
          <mxGeometry width="50" height="50" relative="1" as="geometry">
            <mxPoint x="1350" y="-370" as="sourcePoint" />
            <mxPoint x="1400" y="-420" as="targetPoint" />
            <Array as="points">
              <mxPoint x="1270" y="-380" />
            </Array>
          </mxGeometry>
        </mxCell>
        <mxCell id="uut_nFxTRFVd7JwxGQTN-62" value="최근본 상품&lt;br&gt;mypage_recent&lt;br&gt;_product.jsp" style="rounded=0;whiteSpace=wrap;html=1;labelBackgroundColor=none;" parent="1" vertex="1">
          <mxGeometry x="2320" y="-930" width="120" height="60" as="geometry" />
        </mxCell>
        <mxCell id="uut_nFxTRFVd7JwxGQTN-63" value="" style="endArrow=classic;html=1;rounded=0;entryX=0;entryY=0.5;entryDx=0;entryDy=0;" parent="1" target="uut_nFxTRFVd7JwxGQTN-62" edge="1">
          <mxGeometry width="50" height="50" relative="1" as="geometry">
            <mxPoint x="2221" y="-900" as="sourcePoint" />
            <mxPoint x="2271" y="-950" as="targetPoint" />
          </mxGeometry>
        </mxCell>
        <mxCell id="uut_nFxTRFVd7JwxGQTN-64" value="내 후기내역&lt;br&gt;board/review.jsp" style="rounded=0;whiteSpace=wrap;html=1;labelBackgroundColor=none;" parent="1" vertex="1">
          <mxGeometry x="1930" y="-1210" width="120" height="60" as="geometry" />
        </mxCell>
        <mxCell id="uut_nFxTRFVd7JwxGQTN-65" value="내 문의내역&lt;br&gt;board/qna.jsp" style="rounded=0;whiteSpace=wrap;html=1;labelBackgroundColor=none;" parent="1" vertex="1">
          <mxGeometry x="1930" y="-1090" width="120" height="60" as="geometry" />
        </mxCell>
        <mxCell id="uut_nFxTRFVd7JwxGQTN-66" value="" style="endArrow=classic;html=1;rounded=0;exitX=0.075;exitY=-0.046;exitDx=0;exitDy=0;exitPerimeter=0;entryX=1;entryY=0.5;entryDx=0;entryDy=0;" parent="1" source="uuZ5_4V9N_6O_D1vq4jB-5" target="uut_nFxTRFVd7JwxGQTN-65" edge="1">
          <mxGeometry width="50" height="50" relative="1" as="geometry">
            <mxPoint x="2030" y="-1170" as="sourcePoint" />
            <mxPoint x="2080" y="-1220" as="targetPoint" />
            <Array as="points">
              <mxPoint x="2080" y="-1060" />
            </Array>
          </mxGeometry>
        </mxCell>
        <mxCell id="uut_nFxTRFVd7JwxGQTN-67" value="" style="endArrow=classic;html=1;rounded=0;exitX=0.25;exitY=0;exitDx=0;exitDy=0;entryX=1;entryY=0.5;entryDx=0;entryDy=0;" parent="1" source="uuZ5_4V9N_6O_D1vq4jB-5" target="uut_nFxTRFVd7JwxGQTN-64" edge="1">
          <mxGeometry width="50" height="50" relative="1" as="geometry">
            <mxPoint x="2030" y="-1170" as="sourcePoint" />
            <mxPoint x="2080" y="-1220" as="targetPoint" />
            <Array as="points">
              <mxPoint x="2110" y="-1180" />
            </Array>
          </mxGeometry>
        </mxCell>
        <mxCell id="uut_nFxTRFVd7JwxGQTN-68" value="배송지 관리&lt;br&gt;delivey_list.jsp" style="rounded=0;whiteSpace=wrap;html=1;labelBackgroundColor=none;" parent="1" vertex="1">
          <mxGeometry x="2270" y="-810" width="120" height="60" as="geometry" />
        </mxCell>
        <mxCell id="uut_nFxTRFVd7JwxGQTN-69" value="" style="endArrow=classic;html=1;rounded=0;exitX=0.75;exitY=1;exitDx=0;exitDy=0;entryX=0.5;entryY=0;entryDx=0;entryDy=0;" parent="1" source="uuZ5_4V9N_6O_D1vq4jB-5" target="uut_nFxTRFVd7JwxGQTN-68" edge="1">
          <mxGeometry width="50" height="50" relative="1" as="geometry">
            <mxPoint x="2130" y="-880" as="sourcePoint" />
            <mxPoint x="2180" y="-930" as="targetPoint" />
            <Array as="points">
              <mxPoint x="2183" y="-840" />
              <mxPoint x="2330" y="-840" />
            </Array>
          </mxGeometry>
        </mxCell>
        <mxCell id="uut_nFxTRFVd7JwxGQTN-70" value="배송지 추가&lt;br&gt;delivey_inset.jsp" style="rounded=0;whiteSpace=wrap;html=1;labelBackgroundColor=none;" parent="1" vertex="1">
          <mxGeometry x="2270" y="-690" width="120" height="60" as="geometry" />
        </mxCell>
        <mxCell id="uut_nFxTRFVd7JwxGQTN-71" value="" style="endArrow=classic;html=1;rounded=0;exitX=0.5;exitY=1;exitDx=0;exitDy=0;entryX=0.5;entryY=0;entryDx=0;entryDy=0;" parent="1" source="uut_nFxTRFVd7JwxGQTN-68" target="uut_nFxTRFVd7JwxGQTN-70" edge="1">
          <mxGeometry width="50" height="50" relative="1" as="geometry">
            <mxPoint x="2130" y="-700" as="sourcePoint" />
            <mxPoint x="2180" y="-750" as="targetPoint" />
          </mxGeometry>
        </mxCell>
        <mxCell id="uut_nFxTRFVd7JwxGQTN-72" value="배송지추가&lt;br&gt;delivey_inset.ez" style="rounded=0;whiteSpace=wrap;html=1;labelBackgroundColor=none;fillColor=#f8cecc;strokeColor=#b85450;" parent="1" vertex="1">
          <mxGeometry x="2270" y="-540" width="120" height="60" as="geometry" />
        </mxCell>
        <mxCell id="uut_nFxTRFVd7JwxGQTN-73" value="" style="endArrow=classic;html=1;rounded=0;exitX=0.5;exitY=1;exitDx=0;exitDy=0;entryX=0.5;entryY=0;entryDx=0;entryDy=0;startArrow=none;" parent="1" source="uut_nFxTRFVd7JwxGQTN-74" target="uut_nFxTRFVd7JwxGQTN-72" edge="1">
          <mxGeometry width="50" height="50" relative="1" as="geometry">
            <mxPoint x="2130" y="-710" as="sourcePoint" />
            <mxPoint x="2180" y="-760" as="targetPoint" />
          </mxGeometry>
        </mxCell>
        <mxCell id="uut_nFxTRFVd7JwxGQTN-74" value="이름&lt;br&gt;전화번호&lt;br&gt;주소" style="text;html=1;strokeColor=none;fillColor=none;align=center;verticalAlign=middle;whiteSpace=wrap;rounded=0;labelBackgroundColor=none;" parent="1" vertex="1">
          <mxGeometry x="2300" y="-600" width="60" height="30" as="geometry" />
        </mxCell>
        <mxCell id="uut_nFxTRFVd7JwxGQTN-75" value="" style="endArrow=none;html=1;rounded=0;exitX=0.5;exitY=1;exitDx=0;exitDy=0;entryX=0.5;entryY=0;entryDx=0;entryDy=0;" parent="1" source="uut_nFxTRFVd7JwxGQTN-70" target="uut_nFxTRFVd7JwxGQTN-74" edge="1">
          <mxGeometry width="50" height="50" relative="1" as="geometry">
            <mxPoint x="2329.999999999999" y="-630" as="sourcePoint" />
            <mxPoint x="2329.999999999999" y="-560" as="targetPoint" />
          </mxGeometry>
        </mxCell>
        <mxCell id="uut_nFxTRFVd7JwxGQTN-76" value="배송지 삭제&lt;br&gt;delivey_delete.ez" style="rounded=0;whiteSpace=wrap;html=1;labelBackgroundColor=none;fillColor=#f8cecc;strokeColor=#b85450;" parent="1" vertex="1">
          <mxGeometry x="2481" y="-830" width="120" height="60" as="geometry" />
        </mxCell>
        <mxCell id="uut_nFxTRFVd7JwxGQTN-77" value="" style="endArrow=classic;html=1;rounded=0;entryX=0;entryY=0.5;entryDx=0;entryDy=0;exitX=1;exitY=0.25;exitDx=0;exitDy=0;" parent="1" source="uut_nFxTRFVd7JwxGQTN-68" target="uut_nFxTRFVd7JwxGQTN-76" edge="1">
          <mxGeometry width="50" height="50" relative="1" as="geometry">
            <mxPoint x="2390" y="-780" as="sourcePoint" />
            <mxPoint x="2180" y="-780" as="targetPoint" />
            <Array as="points" />
          </mxGeometry>
        </mxCell>
        <mxCell id="uut_nFxTRFVd7JwxGQTN-79" value="대표배송지 변경&lt;br&gt;delivery_update.ez" style="rounded=0;whiteSpace=wrap;html=1;labelBackgroundColor=none;fillColor=#f8cecc;strokeColor=#b85450;" parent="1" vertex="1">
          <mxGeometry x="2481" y="-730" width="120" height="60" as="geometry" />
        </mxCell>
        <mxCell id="uut_nFxTRFVd7JwxGQTN-80" value="" style="endArrow=classic;html=1;rounded=0;exitX=1;exitY=0.75;exitDx=0;exitDy=0;entryX=0;entryY=0.25;entryDx=0;entryDy=0;" parent="1" source="uut_nFxTRFVd7JwxGQTN-68" target="uut_nFxTRFVd7JwxGQTN-79" edge="1">
          <mxGeometry width="50" height="50" relative="1" as="geometry">
            <mxPoint x="2130" y="-740" as="sourcePoint" />
            <mxPoint x="2180" y="-790" as="targetPoint" />
            <Array as="points">
              <mxPoint x="2390" y="-710" />
            </Array>
          </mxGeometry>
        </mxCell>
        <mxCell id="uut_nFxTRFVd7JwxGQTN-81" value="회원탈퇴&lt;br&gt;exit.jsp" style="rounded=0;whiteSpace=wrap;html=1;labelBackgroundColor=none;" parent="1" vertex="1">
          <mxGeometry x="2500" y="-1012.5" width="120" height="60" as="geometry" />
        </mxCell>
        <mxCell id="uut_nFxTRFVd7JwxGQTN-82" value="" style="endArrow=classic;html=1;rounded=0;exitX=0.75;exitY=0;exitDx=0;exitDy=0;entryX=0.5;entryY=1;entryDx=0;entryDy=0;" parent="1" source="uut_nFxTRFVd7JwxGQTN-68" target="uut_nFxTRFVd7JwxGQTN-81" edge="1">
          <mxGeometry width="50" height="50" relative="1" as="geometry">
            <mxPoint x="2130" y="-940" as="sourcePoint" />
            <mxPoint x="2180" y="-990" as="targetPoint" />
            <Array as="points">
              <mxPoint x="2440" y="-840" />
              <mxPoint x="2560" y="-890" />
            </Array>
          </mxGeometry>
        </mxCell>
        <mxCell id="uut_nFxTRFVd7JwxGQTN-83" value="회원탈퇴&lt;br&gt;exit.ez" style="rounded=0;whiteSpace=wrap;html=1;labelBackgroundColor=none;fillColor=#f8cecc;strokeColor=#b85450;" parent="1" vertex="1">
          <mxGeometry x="2500" y="-1169" width="120" height="60" as="geometry" />
        </mxCell>
        <mxCell id="uut_nFxTRFVd7JwxGQTN-84" value="" style="endArrow=classic;html=1;rounded=0;exitX=0.5;exitY=0;exitDx=0;exitDy=0;entryX=0.5;entryY=1;entryDx=0;entryDy=0;" parent="1" source="uut_nFxTRFVd7JwxGQTN-81" target="uut_nFxTRFVd7JwxGQTN-83" edge="1">
          <mxGeometry width="50" height="50" relative="1" as="geometry">
            <mxPoint x="2130" y="-950" as="sourcePoint" />
            <mxPoint x="2180" y="-1000" as="targetPoint" />
          </mxGeometry>
        </mxCell>
      </root>
    </mxGraphModel>
  </diagram>
</mxfile>
